<svg xmlns="http://www.w3.org/2000/svg" width="256.233" height="258.77" viewBox="0 0 256.233 258.77">
  <g id="Date_picker-pana" data-name="Date picker-pana" transform="translate(-40.882 -54.54)">
    <g id="freepik--background-simple--inject-138" transform="translate(56.779 55.867)">
      <path id="Path_452" data-name="Path 452" d="M267.782,85.672l-1.257-2.08c-10.621-17.5-29.827-28.063-50.075-26.77a52.809,52.809,0,0,0-7.748,1.062c-18.406,3.941-34.427,17.863-41.064,35.689-3.9,10.487-5,22.573-12.409,30.882-9.639,10.829-26.014,11.171-40.405,10.719s-30.766-.061-40.375,10.786c-6.009,6.808-7.931,16.472-7.437,25.623,1.281,24.147,18.107,45.756,39.509,56.469s46.591,11.707,70.006,6.979c32.81-6.613,64.009-24.775,82.763-52.826S282.79,115.944,267.782,85.672Z" transform="translate(-66.939 -56.715)" fill="#ebebeb"/>
      <circle id="Ellipse_40" data-name="Ellipse 40" cx="25.495" cy="25.495" r="25.495" transform="translate(2.649 5.597)" fill="#ebebeb"/>
      <circle id="Ellipse_41" data-name="Ellipse 41" cx="25.495" cy="25.495" r="25.495" transform="translate(141.762 209.427) rotate(-80.9)" fill="#ebebeb"/>
    </g>
    <g id="freepik--Calendar--inject-138" transform="translate(95.971 54.54)">
      <rect id="Rectangle_660" data-name="Rectangle 660" width="134.668" height="134.668" transform="translate(0.104 0.177)" fill="#fff"/>
      <path id="Path_453" data-name="Path 453" d="M265.952,189.385c0-1.171-.055-53.931-.14-134.668l.14.14H131.3l.159-.159V189.367l-.14-.134,134.668.134-134.668.14h-.134V54.54H266.147v.134C266.007,135.454,265.952,188.214,265.952,189.385Z" transform="translate(-131.18 -54.54)" fill="#263238"/>
      <path id="Path_454" data-name="Path 454" d="M288.768,150.642H240.206a5.686,5.686,0,0,1-5.686-5.686h0a5.686,5.686,0,0,1,5.686-5.686h48.562a5.692,5.692,0,0,1,5.692,5.686h0a5.692,5.692,0,0,1-5.692,5.686Z" transform="translate(-171.475 -87.578)" fill="#ffc100"/>
      <g id="Group_168" data-name="Group 168" transform="translate(63.045 51.692)" opacity="0.6">
        <path id="Path_455" data-name="Path 455" d="M288.768,150.642H240.206a5.686,5.686,0,0,1-5.686-5.686h0a5.686,5.686,0,0,1,5.686-5.686h48.562a5.692,5.692,0,0,1,5.692,5.686h0a5.692,5.692,0,0,1-5.692,5.686Z" transform="translate(-234.52 -139.27)" fill="#fff"/>
      </g>
      <path id="Path_456" data-name="Path 456" d="M233.237,176.578H151.566a5.692,5.692,0,0,1-5.686-5.692h0a5.686,5.686,0,0,1,5.686-5.686h81.671a5.692,5.692,0,0,1,5.692,5.686h0A5.692,5.692,0,0,1,233.237,176.578Z" transform="translate(-136.912 -97.689)" fill="#ffc100"/>
      <g id="Group_169" data-name="Group 169" transform="translate(8.968 67.511)" opacity="0.6">
        <path id="Path_457" data-name="Path 457" d="M233.237,176.578H151.566a5.692,5.692,0,0,1-5.686-5.692h0a5.686,5.686,0,0,1,5.686-5.686h81.671a5.692,5.692,0,0,1,5.692,5.686h0A5.692,5.692,0,0,1,233.237,176.578Z" transform="translate(-145.88 -165.2)" fill="#fff"/>
      </g>
      <circle id="Ellipse_42" data-name="Ellipse 42" cx="5.765" cy="5.765" r="5.765" transform="translate(59.065 57.945) rotate(-48.88)" fill="#ffc100"/>
      <circle id="Ellipse_43" data-name="Ellipse 43" cx="5.765" cy="5.765" r="5.765" transform="translate(93.016 77.48) rotate(-76.66)" fill="#ffc100"/>
      <path id="Path_458" data-name="Path 458" d="M152.764,83.72a.317.317,0,0,1-.2-.073l-1.629-1.458a.3.3,0,0,1-.1-.207.305.305,0,0,1,.085-.226L152.538,80a.3.3,0,0,1,.427.433l-1.421,1.507,1.4,1.22a.354.354,0,0,1-.177.555Z" transform="translate(-138.842 -64.435)" fill="#263238"/>
      <path id="Path_459" data-name="Path 459" d="M330.81,83.725a.287.287,0,0,1-.207-.079.305.305,0,0,1,0-.433l1.428-1.519-1.391-1.22a.305.305,0,1,1,.409-.451l1.592,1.421a.311.311,0,0,1,.1.214.323.323,0,0,1-.079.22l-1.611,1.757A.281.281,0,0,1,330.81,83.725Z" transform="translate(-208.904 -64.44)" fill="#263238"/>
      <path id="Path_460" data-name="Path 460" d="M234.626,82.778V79.807l-1.458,2.44h-.512L231.2,79.868v2.9H230.13V77.83h.952l1.83,3.05,1.83-3.05h.939v4.948Z" transform="translate(-169.763 -63.621)" fill="#263238"/>
      <path id="Path_461" data-name="Path 461" d="M244.269,81.292v2.172h-1.031v-.476a1.22,1.22,0,0,1-1.147.512c-.891,0-1.421-.494-1.421-1.153s.476-1.135,1.635-1.135h.879c0-.476-.287-.75-.879-.75a1.83,1.83,0,0,0-1.1.354l-.39-.769a2.892,2.892,0,0,1,1.635-.458C243.6,79.608,244.269,80.145,244.269,81.292Zm-1.1.988v-.39h-.757c-.519,0-.677.2-.677.445s.232.464.61.464A.818.818,0,0,0,243.171,82.28Z" transform="translate(-173.873 -64.307)" fill="#263238"/>
      <path id="Path_462" data-name="Path 462" d="M251.484,79.71l-1.72,4.033a1.568,1.568,0,0,1-1.574,1.22,1.69,1.69,0,0,1-1.062-.348l.4-.781a.988.988,0,0,0,.61.238c.305,0,.476-.134.61-.476v-.031l-1.641-3.831h1.153l1.068,2.581,1.074-2.581Z" transform="translate(-176.384 -64.354)" fill="#263238"/>
      <path id="Path_463" data-name="Path 463" d="M266.166,103.819c0,.085-29.131.159-65.065.159s-65.1-.073-65.1-.159,29.131-.159,65.077-.159S266.166,103.727,266.166,103.819Z" transform="translate(-133.059 -73.693)" fill="#e0e0e0"/>
      <path id="Path_464" data-name="Path 464" d="M153.889,122.1v-2.038l-.994,1.678h-.354l-1.013-1.641V122.1h-.738v-3.4h.647l1.275,2.111,1.22-2.111h.647v3.4Z" transform="translate(-138.826 -79.558)" fill="#263238"/>
      <path id="Path_465" data-name="Path 465" d="M158,121.157a1.44,1.44,0,1,1,1.434,1.342A1.342,1.342,0,0,1,158,121.157Zm2.1,0a.659.659,0,1,0-.172.508A.665.665,0,0,0,160.1,121.157Z" transform="translate(-141.636 -79.916)" fill="#263238"/>
      <path id="Path_466" data-name="Path 466" d="M166.208,121.092v1.495h-.757V121.2c0-.421-.189-.61-.525-.61s-.61.22-.61.7v1.293h-.757v-2.605h.726v.305a1.123,1.123,0,0,1,.86-.342,1.019,1.019,0,0,1,1.062,1.153Z" transform="translate(-143.806 -80.04)" fill="#263238"/>
      <path id="Path_467" data-name="Path 467" d="M180.11,119.351H179v-.641h2.959v.641h-1.086v2.758h-.787Z" transform="translate(-149.826 -79.561)" fill="#263238"/>
      <path id="Path_468" data-name="Path 468" d="M187.016,120v2.611h-.72V122.3a1.049,1.049,0,0,1-.805.348,1.037,1.037,0,0,1-1.116-1.171V120h.757v1.36c0,.439.2.61.525.61s.61-.226.61-.708V120Z" transform="translate(-151.918 -80.064)" fill="#263238"/>
      <path id="Path_469" data-name="Path 469" d="M192.265,121.491h-1.952a.7.7,0,0,0,.744.525.891.891,0,0,0,.659-.256l.4.439a1.385,1.385,0,0,1-1.08.421,1.354,1.354,0,0,1-1.489-1.342,1.33,1.33,0,0,1,1.391-1.348,1.293,1.293,0,0,1,1.36,1.354C192.3,121.344,192.265,121.424,192.265,121.491Zm-1.983-.445h1.287a.653.653,0,0,0-1.287,0Z" transform="translate(-153.94 -80.036)" fill="#263238"/>
      <path id="Path_470" data-name="Path 470" d="M187.263,145.5v3.4h-.348V145.8h-.805v-.311Z" transform="translate(-152.599 -90.004)"/>
      <path id="Path_471" data-name="Path 471" d="M214.763,148.581v.311h-2.379v-.25l1.409-1.379c.384-.378.458-.61.458-.842,0-.39-.275-.61-.793-.61a1.153,1.153,0,0,0-.927.378l-.25-.214a1.531,1.531,0,0,1,1.22-.488c.683,0,1.123.354,1.123.921a1.409,1.409,0,0,1-.555,1.062l-1.159,1.135Z" transform="translate(-162.803 -90.002)"/>
      <path id="Path_472" data-name="Path 472" d="M241.66,147.922c0,.567-.409,1-1.22,1a1.757,1.757,0,0,1-1.22-.433l.171-.275a1.482,1.482,0,0,0,1.049.39c.561,0,.872-.262.872-.683s-.287-.677-.915-.677h-.244v-.256l.94-1.177H239.36V145.5h2.166v.25l-.964,1.22C241.294,147.025,241.66,147.379,241.66,147.922Z" transform="translate(-173.307 -90.008)"/>
      <path id="Path_473" data-name="Path 473" d="M268.965,148h-.683v.9h-.348V148H266v-.25l1.83-2.251h.384l-1.733,2.19h1.476v-.781h.336v.781h.683Z" transform="translate(-183.75 -90.007)"/>
      <path id="Path_474" data-name="Path 474" d="M159.7,172.564v.256l-1.391,3.142h-.378l1.4-3.087h-1.745v.61h-.348v-.946Z" transform="translate(-141.341 -100.551)"/>
      <path id="Path_475" data-name="Path 475" d="M187.049,175.017c0,.61-.512.976-1.324.976s-1.306-.378-1.306-.976a.848.848,0,0,1,.653-.836.763.763,0,0,1-.531-.744c0-.555.47-.9,1.184-.9s1.22.342,1.22.9a.769.769,0,0,1-.543.744A.854.854,0,0,1,187.049,175.017Zm-.36,0c0-.415-.36-.677-.964-.677s-.952.262-.952.677.354.683.952.683.964-.268.964-.689Zm-.964-.976c.531,0,.848-.232.848-.61s-.336-.61-.848-.61-.836.232-.836.61S185.2,174.041,185.725,174.041Z" transform="translate(-151.94 -100.551)"/>
      <path id="Path_476" data-name="Path 476" d="M214.26,174.248c0,1.153-.61,1.757-1.55,1.757a1.531,1.531,0,0,1-.805-.189l.14-.281a1.177,1.177,0,0,0,.659.165c.732,0,1.22-.47,1.22-1.4v-.275a1.092,1.092,0,0,1-1.043.61,1.031,1.031,0,0,1-1.141-1.019,1.055,1.055,0,0,1,1.159-1.043C213.772,172.552,214.26,173.175,214.26,174.248Zm-.482-.677c0-.372-.311-.726-.9-.726a.744.744,0,0,0-.83.738c0,.445.329.732.854.732a.787.787,0,0,0,.872-.744Z" transform="translate(-162.592 -100.563)"/>
      <path id="Path_477" data-name="Path 477" d="M238.267,172.58v3.4h-.348v-3.087h-.8v-.311Z" transform="translate(-172.489 -100.567)"/>
      <path id="Path_478" data-name="Path 478" d="M240.37,174.267c0-1.086.567-1.727,1.354-1.727s1.36.641,1.36,1.727-.573,1.727-1.36,1.727S240.37,175.346,240.37,174.267Zm2.355,0c0-.909-.409-1.409-1-1.409s-1,.5-1,1.409.409,1.4,1,1.4S242.725,175.169,242.725,174.267Z" transform="translate(-173.756 -100.551)"/>
      <path id="Path_479" data-name="Path 479" d="M266.813,172.58v3.4h-.323v-3.087h-.8v-.311Z" transform="translate(-183.629 -100.567)"/>
      <path id="Path_480" data-name="Path 480" d="M269.667,172.58v3.4h-.348v-3.087h-.8v-.311Z" transform="translate(-184.732 -100.567)"/>
      <path id="Path_481" data-name="Path 481" d="M293.267,172.58v3.4h-.348v-3.087h-.8v-.311Z" transform="translate(-193.934 -100.567)"/>
      <path id="Path_482" data-name="Path 482" d="M297.543,175.665v.311h-2.379v-.25l1.409-1.379c.384-.378.458-.61.458-.842,0-.39-.281-.61-.8-.61a1.165,1.165,0,0,0-.927.378l-.244-.214a1.519,1.519,0,0,1,1.22-.482c.689,0,1.123.348,1.123.915a1.385,1.385,0,0,1-.555,1.062l-1.153,1.135Z" transform="translate(-195.081 -100.564)"/>
      <path id="Path_483" data-name="Path 483" d="M320.573,172.58v3.4h-.354v-3.087h-.8v-.311Z" transform="translate(-204.579 -100.567)"/>
      <path id="Path_484" data-name="Path 484" d="M324.76,174.99c0,.567-.415,1.007-1.22,1.007a1.745,1.745,0,0,1-1.22-.439l.165-.275a1.5,1.5,0,0,0,1.055.39c.561,0,.872-.262.872-.683s-.287-.671-.915-.671h-.244v-.275l.94-1.184H322.46v-.311h2.178v.275l-.958,1.22C324.394,174.045,324.76,174.447,324.76,174.99Z" transform="translate(-205.71 -100.555)"/>
      <path id="Path_485" data-name="Path 485" d="M158.153,199.5v3.4h-.348v-3.1H157v-.311Z" transform="translate(-141.248 -111.059)"/>
      <path id="Path_486" data-name="Path 486" d="M163.121,202.017h-.677v.891H162.1v-.891H160.18v-.256l1.83-2.251h.384l-1.733,2.2h1.47v-.787h.342v.787h.647Z" transform="translate(-142.488 -111.067)"/>
      <path id="Path_487" data-name="Path 487" d="M185.743,199.5v3.4h-.354v-3.1h-.8v-.311Z" transform="translate(-152.006 -111.059)"/>
      <path id="Path_488" data-name="Path 488" d="M190.02,201.908c0,.58-.4,1.031-1.22,1.031a1.739,1.739,0,0,1-1.22-.439l.171-.275a1.464,1.464,0,0,0,1.037.39c.58,0,.885-.281.885-.689s-.268-.714-1.135-.714h-.7l.171-1.7h1.83v.3h-1.556l-.116,1.086h.439C189.666,200.907,190.02,201.31,190.02,201.908Z" transform="translate(-153.172 -111.067)"/>
      <path id="Path_489" data-name="Path 489" d="M212.777,199.5v3.4h-.348v-3.1h-.8v-.311Z" transform="translate(-162.549 -111.059)"/>
      <path id="Path_490" data-name="Path 490" d="M217.37,201.879a1.062,1.062,0,0,1-1.159,1.043c-.9,0-1.391-.61-1.391-1.7a1.541,1.541,0,0,1,1.55-1.751,1.525,1.525,0,0,1,.805.183l-.14.281a1.22,1.22,0,0,0-.659-.159c-.732,0-1.22.47-1.22,1.391v.275a1.086,1.086,0,0,1,1.037-.58,1.025,1.025,0,0,1,1.177,1.019Zm-.342,0c0-.445-.329-.732-.854-.732a.787.787,0,0,0-.872.744c0,.372.305.726.9.726a.744.744,0,0,0,.842-.732Z" transform="translate(-163.793 -111.05)"/>
      <path id="Path_491" data-name="Path 491" d="M240.057,199.5v3.4h-.348v-3.1h-.8v-.311Z" transform="translate(-173.187 -111.059)"/>
      <path id="Path_492" data-name="Path 492" d="M244.471,199.494v.25l-1.421,3.148h-.378l1.4-3.087h-1.745v.61H242v-.946Z" transform="translate(-174.391 -111.052)"/>
      <path id="Path_493" data-name="Path 493" d="M267.067,199.5v3.4h-.348v-3.1h-.8v-.311Z" transform="translate(-183.718 -111.059)"/>
      <path id="Path_494" data-name="Path 494" d="M271.729,201.947c0,.61-.512.976-1.318.976s-1.312-.378-1.312-.976a.848.848,0,0,1,.653-.836.763.763,0,0,1-.531-.744c0-.555.47-.9,1.19-.9s1.22.342,1.22.9a.769.769,0,0,1-.543.744A.854.854,0,0,1,271.729,201.947Zm-.36,0c0-.415-.36-.677-.958-.677s-.958.262-.958.677.354.683.958.683.958-.268.958-.689Zm-.958-.933c.525,0,.842-.238.842-.61s-.336-.61-.842-.61-.842.232-.842.61S269.881,201.013,270.412,201.013Z" transform="translate(-184.958 -111.052)"/>
      <path id="Path_495" data-name="Path 495" d="M294.387,199.5v3.4h-.348v-3.1h-.8v-.311Z" transform="translate(-194.371 -111.059)"/>
      <path id="Path_496" data-name="Path 496" d="M298.856,201.178c0,1.153-.61,1.757-1.556,1.757a1.531,1.531,0,0,1-.805-.189l.14-.281a1.22,1.22,0,0,0,.659.165c.732,0,1.22-.476,1.22-1.4a2.466,2.466,0,0,0,0-.275,1.092,1.092,0,0,1-1.037.61,1.037,1.037,0,0,1-1.147-1.019,1.055,1.055,0,0,1,1.159-1.043C298.362,199.482,298.856,200.1,298.856,201.178Zm-.482-.677c0-.372-.311-.726-.9-.726a.744.744,0,0,0-.83.738c0,.445.329.732.854.732a.787.787,0,0,0,.872-.744Z" transform="translate(-195.576 -111.064)"/>
      <path id="Path_497" data-name="Path 497" d="M321.979,202.595v.311h-2.385v-.25l1.415-1.379c.378-.378.451-.61.451-.842,0-.39-.275-.61-.793-.61a1.165,1.165,0,0,0-.927.378l-.25-.214a1.531,1.531,0,0,1,1.22-.482c.689,0,1.123.348,1.123.915a1.409,1.409,0,0,1-.555,1.062l-1.159,1.135Z" transform="translate(-204.607 -111.065)"/>
      <path id="Path_498" data-name="Path 498" d="M324.25,201.2c0-1.086.567-1.727,1.354-1.727s1.36.641,1.36,1.727-.573,1.727-1.36,1.727S324.25,202.276,324.25,201.2Zm2.355,0c0-.909-.409-1.409-1-1.409s-1,.5-1,1.409.409,1.4,1,1.4S326.6,202.1,326.6,201.2Z" transform="translate(-206.463 -111.052)"/>
      <path id="Path_499" data-name="Path 499" d="M159.563,227.449v.311h-2.379v-.244l1.409-1.385c.384-.378.458-.61.458-.836,0-.4-.275-.61-.793-.61a1.147,1.147,0,0,0-.927.378l-.25-.207a1.525,1.525,0,0,1,1.22-.488c.689,0,1.129.348,1.129.915a1.4,1.4,0,0,1-.561,1.062l-1.153,1.135Z" transform="translate(-141.279 -120.759)"/>
      <path id="Path_500" data-name="Path 500" d="M162.677,224.37v3.392h-.348v-3.081h-.8v-.311Z" transform="translate(-143.014 -120.761)"/>
      <path id="Path_501" data-name="Path 501" d="M185.959,227.449v.311h-2.385v-.244l1.415-1.385c.378-.378.451-.61.451-.836,0-.4-.275-.61-.793-.61a1.165,1.165,0,0,0-.927.378l-.25-.207a1.537,1.537,0,0,1,1.22-.488c.689,0,1.123.348,1.123.915a1.409,1.409,0,0,1-.555,1.062L184.1,227.48Z" transform="translate(-151.569 -120.759)"/>
      <path id="Path_502" data-name="Path 502" d="M190.473,227.449v.311h-2.379v-.244l1.409-1.385c.384-.378.458-.61.458-.836,0-.4-.275-.61-.793-.61a1.153,1.153,0,0,0-.927.378l-.25-.207a1.531,1.531,0,0,1,1.22-.488c.683,0,1.123.348,1.123.915a1.409,1.409,0,0,1-.555,1.062l-1.159,1.135Z" transform="translate(-153.332 -120.759)"/>
      <path id="Path_503" data-name="Path 503" d="M213.193,227.449v.311h-2.379v-.244l1.409-1.385c.384-.378.458-.61.458-.836,0-.4-.281-.61-.8-.61a1.165,1.165,0,0,0-.927.378l-.244-.207a1.525,1.525,0,0,1,1.22-.488c.689,0,1.123.348,1.123.915a1.385,1.385,0,0,1-.555,1.062l-1.153,1.135Z" transform="translate(-162.191 -120.759)"/>
      <path id="Path_504" data-name="Path 504" d="M217.62,226.786c0,.567-.415,1.007-1.22,1.007a1.757,1.757,0,0,1-1.22-.439l.165-.275a1.489,1.489,0,0,0,1.055.4c.561,0,.872-.262.872-.689s-.287-.671-.915-.671h-.244v-.256l.94-1.177H215.32v-.311h2.19v.244l-.958,1.22C217.254,225.865,217.62,226.243,217.62,226.786Z" transform="translate(-163.934 -120.761)"/>
      <path id="Path_505" data-name="Path 505" d="M240.113,227.445v.311h-2.379v-.244l1.409-1.385c.384-.378.458-.61.458-.836,0-.4-.275-.61-.8-.61a1.123,1.123,0,0,0-.921.378l-.25-.214a1.525,1.525,0,0,1,1.22-.488c.689,0,1.129.348,1.129.915a1.391,1.391,0,0,1-.561,1.062l-1.153,1.135Z" transform="translate(-172.687 -120.755)"/>
      <path id="Path_506" data-name="Path 506" d="M245.117,226.871h-.683v.891h-.348v-.891H242.17v-.25L244,224.37h.39l-1.788,2.215h1.476V225.8h.336v.787h.7Z" transform="translate(-174.458 -120.761)"/>
      <path id="Path_507" data-name="Path 507" d="M267.623,227.449v.311h-2.385v-.244l1.415-1.385c.378-.378.451-.61.451-.836,0-.4-.275-.61-.793-.61a1.165,1.165,0,0,0-.927.378l-.244-.207a1.513,1.513,0,0,1,1.22-.488c.689,0,1.123.348,1.123.915a1.409,1.409,0,0,1-.555,1.062l-1.153,1.135Z" transform="translate(-183.414 -120.759)"/>
      <path id="Path_508" data-name="Path 508" d="M272.14,226.761c0,.61-.4,1.031-1.22,1.031a1.733,1.733,0,0,1-1.22-.439l.165-.275a1.464,1.464,0,0,0,1.043.4c.58,0,.885-.287.885-.7s-.268-.708-1.135-.708h-.72l.171-1.7h1.861v.311h-1.556l-.116,1.08h.439C271.756,225.761,272.14,226.164,272.14,226.761Z" transform="translate(-185.192 -120.761)"/>
      <path id="Path_509" data-name="Path 509" d="M294.683,227.449v.311H292.3v-.244l1.415-1.385c.384-.378.458-.61.458-.836,0-.4-.281-.61-.8-.61a1.165,1.165,0,0,0-.927.378l-.244-.207a1.525,1.525,0,0,1,1.22-.488c.689,0,1.123.348,1.123.915a1.385,1.385,0,0,1-.555,1.062l-1.153,1.135Z" transform="translate(-193.966 -120.759)"/>
      <path id="Path_510" data-name="Path 510" d="M299.51,226.729a1.062,1.062,0,0,1-1.159,1.043c-.9,0-1.391-.61-1.391-1.7a1.549,1.549,0,0,1,1.55-1.757,1.586,1.586,0,0,1,.805.183l-.14.281a1.22,1.22,0,0,0-.659-.159c-.732,0-1.22.47-1.22,1.391a2.353,2.353,0,0,0,0,.281,1.08,1.08,0,0,1,1.037-.61,1.025,1.025,0,0,1,1.177,1.043Zm-.348,0c0-.445-.329-.732-.854-.732a.781.781,0,0,0-.872.738c0,.372.311.732.9.732a.744.744,0,0,0,.83-.726Z" transform="translate(-195.822 -120.741)"/>
      <path id="Path_511" data-name="Path 511" d="M321.979,227.449v.311h-2.385v-.244l1.415-1.385c.378-.378.451-.61.451-.836,0-.4-.275-.61-.793-.61a1.165,1.165,0,0,0-.927.378l-.25-.207a1.537,1.537,0,0,1,1.22-.488c.689,0,1.123.348,1.123.915a1.409,1.409,0,0,1-.555,1.062l-1.159,1.135Z" transform="translate(-204.607 -120.759)"/>
      <path id="Path_512" data-name="Path 512" d="M326.585,224.354v.244l-1.421,3.148h-.378l1.4-3.081h-1.745v.61h-.348v-.946Z" transform="translate(-206.4 -120.745)"/>
      <path id="Path_513" data-name="Path 513" d="M159.563,251.251v.311h-2.379v-.25l1.409-1.379c.384-.378.458-.61.458-.842,0-.39-.275-.61-.793-.61a1.147,1.147,0,0,0-.927.378l-.25-.214a1.525,1.525,0,0,1,1.22-.488c.689,0,1.129.354,1.129.921a1.4,1.4,0,0,1-.561,1.062l-1.153,1.135Z" transform="translate(-141.279 -130.035)"/>
      <path id="Path_514" data-name="Path 514" d="M164.469,250.6c0,.61-.512.97-1.324.97s-1.306-.372-1.306-.97a.848.848,0,0,1,.653-.836.763.763,0,0,1-.531-.744c0-.555.47-.9,1.184-.9s1.22.348,1.22.9a.769.769,0,0,1-.543.744.854.854,0,0,1,.647.836Zm-.36,0c0-.421-.36-.677-.964-.677s-.952.256-.952.677.354.683.952.683.964-.268.964-.689Zm-.952-.964c.531,0,.848-.238.848-.61s-.336-.61-.848-.61-.836.232-.836.61S162.621,249.639,163.158,249.639Z" transform="translate(-143.135 -130.022)"/>
      <path id="Path_515" data-name="Path 515" d="M187.413,251.251v.311h-2.379v-.25l1.409-1.379c.384-.378.458-.61.458-.842,0-.39-.275-.61-.793-.61a1.147,1.147,0,0,0-.927.378l-.25-.214a1.525,1.525,0,0,1,1.22-.488c.689,0,1.129.354,1.129.921a1.4,1.4,0,0,1-.561,1.062l-1.135,1.11Z" transform="translate(-152.138 -130.035)"/>
      <path id="Path_516" data-name="Path 516" d="M192.146,249.819c0,1.153-.61,1.751-1.556,1.751a1.525,1.525,0,0,1-.805-.183l.14-.281a1.22,1.22,0,0,0,.659.159c.732,0,1.22-.47,1.22-1.391a2.385,2.385,0,0,0,0-.275,1.086,1.086,0,0,1-1.037.58,1.031,1.031,0,0,1-1.147-1.019,1.062,1.062,0,0,1,1.159-1.043C191.682,248.117,192.146,248.745,192.146,249.819Zm-.464-.677c0-.372-.311-.726-.9-.726a.744.744,0,0,0-.83.738c0,.445.329.732.854.732a.787.787,0,0,0,.872-.744Z" transform="translate(-153.967 -130.019)"/>
      <path id="Path_517" data-name="Path 517" d="M214.9,250.592c0,.567-.409,1-1.22,1a1.757,1.757,0,0,1-1.22-.433l.171-.275a1.5,1.5,0,0,0,1.049.39c.567,0,.879-.262.879-.683s-.287-.677-.921-.677H213.4v-.256l.94-1.177H212.6v-.311h2.184v.25l-.958,1.22C214.54,249.665,214.9,250.049,214.9,250.592Z" transform="translate(-162.873 -130.041)"/>
      <path id="Path_518" data-name="Path 518" d="M217.27,249.9c0-1.08.567-1.727,1.354-1.727s1.354.647,1.354,1.727-.567,1.727-1.354,1.727S217.27,250.952,217.27,249.9Zm2.355,0c0-.9-.409-1.4-1-1.4s-1,.5-1,1.4.409,1.409,1,1.409S219.625,250.775,219.625,249.9Z" transform="translate(-164.749 -130.041)"/>
      <path id="Path_519" data-name="Path 519" d="M243.86,250.592c0,.567-.415,1-1.22,1a1.757,1.757,0,0,1-1.22-.433l.171-.275a1.5,1.5,0,0,0,1.055.39c.561,0,.872-.262.872-.683s-.287-.677-.915-.677h-.244v-.256l.939-1.177h-1.733v-.311h2.178v.25l-.958,1.22C243.494,249.665,243.86,250.049,243.86,250.592Z" transform="translate(-174.165 -130.041)"/>
      <path id="Path_520" data-name="Path 520" d="M247.033,248.17v3.4h-.354v-3.087h-.8v-.311Z" transform="translate(-175.904 -130.041)"/>
      <path id="Path_521" data-name="Path 521" d="M295.69,147.9c0,.58-.4,1.025-1.22,1.025a1.757,1.757,0,0,1-1.22-.433l.171-.275a1.489,1.489,0,0,0,1.043.39c.58,0,.885-.281.885-.7s-.275-.708-1.135-.708h-.726l.177-1.7h1.83v.305h-1.556l-.116,1.08h.439C295.3,146.891,295.69,147.294,295.69,147.9Z" transform="translate(-194.375 -90.007)"/>
      <path id="Path_522" data-name="Path 522" d="M322.82,147.859a1.049,1.049,0,0,1-1.153,1.043c-.9,0-1.4-.61-1.4-1.7a1.55,1.55,0,0,1,1.556-1.757,1.531,1.531,0,0,1,.805.189l-.14.281a1.22,1.22,0,0,0-.659-.165c-.738,0-1.22.476-1.22,1.4a2.466,2.466,0,0,0,0,.275,1.086,1.086,0,0,1,1.037-.58,1.025,1.025,0,0,1,1.171,1.013Zm-.342,0c0-.445-.329-.732-.854-.732a.787.787,0,0,0-.872.744c0,.372.311.726.9.726a.744.744,0,0,0,.83-.726Z" transform="translate(-204.911 -89.987)"/>
      <path id="Path_523" data-name="Path 523" d="M209.957,118.71l-1.11,3.4h-.842l-.744-2.3-.769,2.3h-.842l-1.11-3.4h.811l.769,2.385.8-2.385h.726l.775,2.4.793-2.4Z" transform="translate(-159.785 -79.561)" fill="#263238"/>
      <path id="Path_524" data-name="Path 524" d="M216.153,121.494h-1.971a.7.7,0,0,0,.744.525.891.891,0,0,0,.659-.256l.4.439a1.385,1.385,0,0,1-1.08.421,1.354,1.354,0,0,1-1.489-1.342,1.33,1.33,0,0,1,1.391-1.342,1.287,1.287,0,0,1,1.36,1.348C216.171,121.348,216.159,121.427,216.153,121.494Zm-1.983-.445h1.287a.653.653,0,0,0-1.287,0Z" transform="translate(-163.247 -80.04)" fill="#263238"/>
      <path id="Path_525" data-name="Path 525" d="M221.28,118.38v3.6h-.726v-.305a.988.988,0,0,1-.811.342,1.342,1.342,0,1,1,0-2.684,1,1,0,0,1,.781.311V118.38Zm-.744,2.294a.665.665,0,1,0-.174.506A.671.671,0,0,0,220.535,120.674Z" transform="translate(-165.189 -79.433)" fill="#263238"/>
      <path id="Path_526" data-name="Path 526" d="M234.556,119.351H233.47v-.641h2.959v.641h-1.086v2.758h-.787Z" transform="translate(-171.065 -79.561)" fill="#263238"/>
      <path id="Path_527" data-name="Path 527" d="M241.608,120.481v1.495h-.757v-1.391c0-.421-.2-.61-.525-.61s-.61.22-.61.7v1.293h-.757v-3.6h.757v1.257a1.147,1.147,0,0,1,.83-.305,1.019,1.019,0,0,1,1.062,1.159Z" transform="translate(-173.206 -79.429)" fill="#263238"/>
      <path id="Path_528" data-name="Path 528" d="M247.042,120v2.611h-.72V122.3a1.062,1.062,0,0,1-.811.348,1.037,1.037,0,0,1-1.116-1.171V120h.757v1.36c0,.439.2.61.531.61s.61-.226.61-.708V120Z" transform="translate(-175.321 -80.064)" fill="#263238"/>
      <path id="Path_529" data-name="Path 529" d="M264.787,119.315v.9h1.574v.61h-1.574v1.22H264v-3.4h2.568v.61Z" transform="translate(-182.97 -79.538)" fill="#263238"/>
      <path id="Path_530" data-name="Path 530" d="M270.537,119.938v.7h-.165a.647.647,0,0,0-.7.732v1.22h-.756v-2.611h.72v.342A1.062,1.062,0,0,1,270.537,119.938Z" transform="translate(-184.888 -80.039)" fill="#263238"/>
      <path id="Path_531" data-name="Path 531" d="M272.17,118.44a.433.433,0,0,1,.47-.421.427.427,0,0,1,.47.409.47.47,0,0,1-.94,0Zm.092.787h.756v2.611h-.756Z" transform="translate(-186.155 -79.291)" fill="#263238"/>
      <path id="Path_532" data-name="Path 532" d="M289.6,121.725l.268-.61a2.007,2.007,0,0,0,1.116.354c.47,0,.659-.159.659-.366,0-.61-1.977-.2-1.977-1.458,0-.58.464-1.055,1.434-1.055a2.251,2.251,0,0,1,1.177.3l-.244.61a1.892,1.892,0,0,0-.94-.268c-.47,0-.647.177-.647.39,0,.61,1.977.189,1.977,1.44,0,.567-.476,1.049-1.446,1.049a2.44,2.44,0,0,1-1.379-.384Z" transform="translate(-192.952 -79.514)" fill="#263238"/>
      <path id="Path_533" data-name="Path 533" d="M297.227,121.1v1.489h-.708v-.329a.86.86,0,0,1-.793.366c-.61,0-.976-.342-.976-.793s.323-.781,1.116-.781h.61c0-.323-.2-.512-.61-.512a1.22,1.22,0,0,0-.75.244l-.268-.531a2.019,2.019,0,0,1,1.123-.311C296.763,119.94,297.227,120.306,297.227,121.1Zm-.757.659V121.5h-.519c-.354,0-.464.128-.464.305s.159.317.421.317A.561.561,0,0,0,296.47,121.758Z" transform="translate(-194.96 -80.041)" fill="#263238"/>
      <path id="Path_534" data-name="Path 534" d="M301.423,122.113a1.08,1.08,0,0,1-.61.165.854.854,0,0,1-.97-.933V120.27h-.4v-.61h.4v-.61h.75v.61h.653v.61h-.653v1.062a.305.305,0,0,0,.329.342.531.531,0,0,0,.305-.092Z" transform="translate(-196.789 -79.694)" fill="#263238"/>
      <path id="Path_535" data-name="Path 535" d="M315.66,121.725l.268-.61a2.013,2.013,0,0,0,1.122.354c.464,0,.653-.159.653-.366,0-.61-1.977-.2-1.977-1.458,0-.58.47-1.055,1.434-1.055a2.251,2.251,0,0,1,1.177.3l-.244.61a1.873,1.873,0,0,0-.939-.268c-.464,0-.647.171-.647.384,0,.61,1.977.2,1.977,1.446,0,.567-.47,1.049-1.44,1.049A2.44,2.44,0,0,1,315.66,121.725Z" transform="translate(-203.113 -79.514)" fill="#263238"/>
      <path id="Path_536" data-name="Path 536" d="M323.7,120v2.611h-.72V122.3a1.062,1.062,0,0,1-.811.348,1.037,1.037,0,0,1-1.116-1.171V120h.756v1.36c0,.439.2.61.531.61s.61-.226.61-.708V120Z" transform="translate(-205.213 -80.064)" fill="#263238"/>
      <path id="Path_537" data-name="Path 537" d="M329.234,121.088v1.495h-.756v-1.391c0-.421-.2-.61-.531-.61s-.61.22-.61.7v1.293h-.757v-2.605h.726v.305a1.123,1.123,0,0,1,.86-.348,1.025,1.025,0,0,1,1.068,1.159Z" transform="translate(-207.371 -80.036)" fill="#263238"/>
    </g>
    <g id="freepik--Character--inject-138" transform="translate(197.896 68.15)">
      <path id="Path_538" data-name="Path 538" d="M374.586,440.12l1.5,14.221s-13.958,6.278-13.946,8.938l27.685-1.873-1.391-22.256Z" transform="translate(-323.162 -218.119)" fill="#455a64"/>
      <g id="Group_170" data-name="Group 170" transform="translate(38.978 221.031)" opacity="0.3">
        <path id="Path_539" data-name="Path 539" d="M374.586,440.12l1.5,14.221s-13.958,6.278-13.946,8.938l27.685-1.873-1.391-22.256Z" transform="translate(-362.14 -439.15)"/>
      </g>
      <g id="Group_171" data-name="Group 171" transform="translate(60.103 234.42)" opacity="0.6">
        <path id="Path_540" data-name="Path 540" d="M398.044,461.123a1.129,1.129,0,0,1,.866,1.22,1.092,1.092,0,0,1-1.22.872,1.22,1.22,0,0,1-.915-1.318,1.123,1.123,0,0,1,1.367-.763" transform="translate(-396.768 -461.097)" fill="#fff"/>
      </g>
      <g id="Group_172" data-name="Group 172" transform="translate(38.927 241.048)" opacity="0.6">
        <path id="Path_541" data-name="Path 541" d="M389.768,474.2l-.226-2.239-26.459,2.629s-1.22.61-1,1.482Z" transform="translate(-362.057 -471.96)" fill="#fff"/>
      </g>
      <path id="Path_542" data-name="Path 542" d="M384.209,463.771c0,.134.7.152,1.391.543s1.086.933,1.22.872-.134-.83-.982-1.287S384.173,463.649,384.209,463.771Z" transform="translate(-331.767 -227.659)" fill="#263238"/>
      <path id="Path_543" data-name="Path 543" d="M379.59,466.128c0,.134.573.323,1.074.866s.671,1.135.805,1.123.171-.787-.464-1.446S379.584,466.03,379.59,466.128Z" transform="translate(-329.966 -228.619)" fill="#263238"/>
      <path id="Path_544" data-name="Path 544" d="M376.48,470.555c.122,0,.268-.665-.134-1.385s-1.049-.964-1.1-.848.372.482.689,1.08S376.346,470.555,376.48,470.555Z" transform="translate(-328.272 -229.483)" fill="#263238"/>
      <path id="Path_545" data-name="Path 545" d="M384.246,458.129c.067.116.671-.11,1.44-.11s1.379.2,1.44.079-.543-.561-1.446-.549S384.173,458.026,384.246,458.129Z" transform="translate(-331.78 -225.293)" fill="#263238"/>
      <path id="Path_546" data-name="Path 546" d="M383.85,452.21a2.6,2.6,0,0,0,1.385-.1,6.357,6.357,0,0,0,1.421-.543,6.573,6.573,0,0,0,.769-.476,1.709,1.709,0,0,0,.4-.354.61.61,0,0,0,0-.726.763.763,0,0,0-.61-.268,1.72,1.72,0,0,0-.512.11,4.361,4.361,0,0,0-.842.354,4.94,4.94,0,0,0-1.22.921c-.61.641-.787,1.159-.738,1.184s.348-.4.964-.94a5.43,5.43,0,0,1,1.22-.781,4.936,4.936,0,0,1,.781-.3c.287-.1.537-.116.61,0s.037.067,0,.159a1.833,1.833,0,0,1-.293.256,7.892,7.892,0,0,1-.708.47,8.042,8.042,0,0,1-1.306.61,9.55,9.55,0,0,0-1.318.427Z" transform="translate(-331.627 -222.248)" fill="#263238"/>
      <path id="Path_547" data-name="Path 547" d="M382.862,451.315a2.184,2.184,0,0,0,.275-1.36,4.46,4.46,0,0,0-.293-1.507,4.65,4.65,0,0,0-.409-.818,1.153,1.153,0,0,0-.933-.641.647.647,0,0,0-.549.427,1.758,1.758,0,0,0-.11.519,3.141,3.141,0,0,0,.061.933,3.2,3.2,0,0,0,.689,1.391c.61.683,1.165.805,1.171.756a5.973,5.973,0,0,1-.909-.958,3.2,3.2,0,0,1-.525-1.275,2.934,2.934,0,0,1,0-.805c0-.293.122-.537.232-.519a.989.989,0,0,1,.512.421,4.716,4.716,0,0,1,.757,2.1C382.9,450.785,382.765,451.3,382.862,451.315Z" transform="translate(-330.451 -221.176)" fill="#263238"/>
      <path id="Path_548" data-name="Path 548" d="M368.877,274.29S355.254,327.031,354.845,332,371.9,380.266,371.9,380.266l13.422-2.532s-.854-63.369-1.287-64.613,3.429-32.389,3.429-32.389Z" transform="translate(-320.315 -153.836)" fill="#263238"/>
      <path id="Path_549" data-name="Path 549" d="M383.339,441.83l.146,14.294s-14.489,4.954-14.715,7.6l27.734.287.683-21.871Z" transform="translate(-325.747 -219.164)" fill="#455a64"/>
      <g id="Group_173" data-name="Group 173" transform="translate(64.985 235.922)" opacity="0.6">
        <path id="Path_550" data-name="Path 550" d="M406.131,463.614a1.141,1.141,0,0,1,.75,1.312,1.092,1.092,0,0,1-1.3.732,1.22,1.22,0,0,1-.787-1.391,1.129,1.129,0,0,1,1.434-.641" transform="translate(-404.77 -463.558)" fill="#fff"/>
      </g>
      <g id="Group_174" data-name="Group 174" transform="translate(43.036 243.018)" opacity="0.6">
        <path id="Path_551" data-name="Path 551" d="M396.513,477.02v-1.83l-26.587.165s-1.22.506-1.129,1.379Z" transform="translate(-368.792 -475.19)" fill="#fff"/>
      </g>
      <path id="Path_552" data-name="Path 552" d="M392.159,464.93c0,.14.677.22,1.33.671s.994,1.031,1.122.976-.055-.836-.86-1.373S392.129,464.814,392.159,464.93Z" transform="translate(-334.867 -228.128)" fill="#263238"/>
      <path id="Path_553" data-name="Path 553" d="M387.339,466.828c-.037.134.543.378.988.964s.567,1.22.7,1.19.238-.763-.329-1.482S387.345,466.7,387.339,466.828Z" transform="translate(-332.987 -228.891)" fill="#263238"/>
      <path id="Path_554" data-name="Path 554" d="M383.829,470.992c.122.03.329-.641,0-1.391s-.952-1.062-1.013-.946.323.512.58,1.135S383.694,470.973,383.829,470.992Z" transform="translate(-331.222 -229.614)" fill="#263238"/>
      <path id="Path_555" data-name="Path 555" d="M392.688,459.364c.055.122.683-.049,1.446,0s1.354.329,1.428.214-.488-.61-1.385-.683S392.626,459.255,392.688,459.364Z" transform="translate(-335.072 -225.815)" fill="#263238"/>
      <g id="Group_175" data-name="Group 175" transform="translate(57.622 225.497)" opacity="0.3">
        <path id="Path_556" data-name="Path 556" d="M392.7,446.47l.024,2.544,13.635.226.073-2.294Z" transform="translate(-392.7 -446.47)"/>
      </g>
      <path id="Path_557" data-name="Path 557" d="M392.73,453.551a2.617,2.617,0,0,0,1.391,0,6.162,6.162,0,0,0,1.464-.409,6.687,6.687,0,0,0,.811-.4,1.79,1.79,0,0,0,.427-.317.61.61,0,0,0,.079-.714.75.75,0,0,0-.61-.329,1.7,1.7,0,0,0-.525.061,4.7,4.7,0,0,0-.872.275,4.942,4.942,0,0,0-1.3.805c-.659.58-.891,1.08-.848,1.11s.384-.372,1.055-.848a5.722,5.722,0,0,1,1.257-.665,5.288,5.288,0,0,1,.8-.226c.3-.067.549-.067.61.067s0,.073-.037.153a1.525,1.525,0,0,1-.311.232,7.505,7.505,0,0,1-.75.4,7.97,7.97,0,0,1-1.354.482,9.646,9.646,0,0,0-1.287.323Z" transform="translate(-335.09 -222.887)" fill="#263238"/>
      <path id="Path_558" data-name="Path 558" d="M391.883,452.425a2.2,2.2,0,0,0,.4-1.33,4.472,4.472,0,0,0-.152-1.525,4.235,4.235,0,0,0-.329-.854,1.153,1.153,0,0,0-.866-.726.665.665,0,0,0-.61.372,1.91,1.91,0,0,0-.159.506,3.257,3.257,0,0,0,0,.94,3.184,3.184,0,0,0,.561,1.446c.519.732,1.08.909,1.092.866a5.775,5.775,0,0,1-.811-1.043,3.258,3.258,0,0,1-.409-1.318,2.964,2.964,0,0,1,.049-.8c.049-.293.165-.531.275-.494a1.023,1.023,0,0,1,.476.464,4.753,4.753,0,0,1,.323.763,4.971,4.971,0,0,1,.232,1.391C391.974,451.9,391.815,452.407,391.883,452.425Z" transform="translate(-334.078 -221.566)" fill="#263238"/>
      <path id="Path_559" data-name="Path 559" d="M409.773,268.7l-31.163.86,4.472,55.45,2.776,53.449,16.167.567c.824-10.316.531-31.5.531-31.5l1.159-9.108,4.112-32.084c.311-1.36,1.458-8.163,2.636-13.611.671-3.13,1.659-7.187,1.867-8.511C412.945,280.285,409.773,268.7,409.773,268.7Z" transform="translate(-329.584 -151.656)" fill="#263238"/>
      <path id="Path_560" data-name="Path 560" d="M381,291a.982.982,0,0,1,0,.25c0,.177,0,.421,0,.726,0,.659-.061,1.6-.11,2.8s-.116,2.7-.165,4.429-.14,3.7-.177,5.869c-.122,4.35-.183,9.529-.165,15.282s.183,12.073.506,18.7.842,12.934,1.409,18.656c.317,2.861.61,5.576.94,8.114.165,1.269.305,2.5.476,3.66s.336,2.306.494,3.38c.293,2.154.641,4.094.915,5.8s.537,3.172.763,4.368.384,2.111.5,2.758c.049.305.092.543.122.72a1.447,1.447,0,0,1,.03.244,1.137,1.137,0,0,1-.067-.238l-.153-.714c-.128-.647-.311-1.568-.555-2.745s-.525-2.654-.811-4.362-.659-3.66-.97-5.79q-.244-1.617-.512-3.38c-.177-1.177-.323-2.4-.494-3.66-.36-2.532-.647-5.253-.964-8.114-.61-5.723-1.1-12.037-1.44-18.668s-.451-12.964-.482-18.717.085-10.939.232-15.289c.055-2.172.153-4.142.226-5.869s.146-3.215.22-4.429.128-2.141.165-2.794c0-.311.043-.549.055-.726S381,291,381,291Z" transform="translate(-330.158 -160.352)" fill="#455a64"/>
      <path id="Path_561" data-name="Path 561" d="M422.94,82.322a5.265,5.265,0,0,1,8.675-4.216,4.667,4.667,0,0,0,1.22.9,4.337,4.337,0,0,0,1.8.073,6.351,6.351,0,0,1,5.735,9.706,6.839,6.839,0,0,1,2.794,11.3,4.423,4.423,0,0,1-1.733,7.248,3.148,3.148,0,0,0-1.342.61c-.952,1.025.464,2.831-.238,4.039-.531.921-2.019.982-2.44,1.964-.287.708.159,1.482.214,2.239.122,1.653-1.6,2.855-3.221,3.2a10.139,10.139,0,0,1-8.944-3,17.186,17.186,0,0,1-4.35-8.657c-1.623-7.522.067-15.319,1.751-22.823" transform="translate(-345.9 -76.849)" fill="#263238"/>
      <path id="Path_562" data-name="Path 562" d="M419.966,87.215a2.062,2.062,0,1,1,2.8-3.008c.214.226.409.525.72.561s.555-.183.811-.336a2.034,2.034,0,0,1,3.044,2.1c1.062-.384,2.483-.183,2.953.842a2.055,2.055,0,0,1-1.068,2.5,4.472,4.472,0,0,1-2.935.214,11.665,11.665,0,0,1-6.156-3.416" transform="translate(-345.402 -79.454)" fill="#ffc100"/>
      <path id="Path_563" data-name="Path 563" d="M431,89.5c0,.055.372-.055.641-.4s.3-.7.238-.714-.189.275-.421.567A5.318,5.318,0,0,0,431,89.5Z" transform="translate(-350.012 -81.349)" fill="#fff"/>
      <path id="Path_564" data-name="Path 564" d="M424.936,88.113c.073,0,.055-.512.244-1.086s.488-.976.439-1.019-.458.317-.659.946A1.55,1.55,0,0,0,424.936,88.113Z" transform="translate(-347.609 -80.419)" fill="#fff"/>
      <path id="Path_565" data-name="Path 565" d="M421.725,87.124c.067,0-.037-.525.11-1.116s.458-.994.4-1.037a1.794,1.794,0,0,0-.512,2.154Z" transform="translate(-346.332 -80.016)" fill="#fff"/>
      <path id="Path_566" data-name="Path 566" d="M433.3,91.187a.744.744,0,0,0,.39-.049,1.708,1.708,0,0,0,1.1-1.458c0-.25-.03-.4-.061-.39a3.746,3.746,0,0,1-.464,1.141A3.8,3.8,0,0,1,433.3,91.187Z" transform="translate(-350.909 -81.7)" fill="#fff"/>
      <path id="Path_567" data-name="Path 567" d="M394.657,111.29a3.252,3.252,0,0,1-1.971-3.856,3.923,3.923,0,0,1-.531-5.68,2.751,2.751,0,0,1,1.891-4.746,3.728,3.728,0,0,1,4.344-4.783,3.416,3.416,0,0,1,5.491-3.05,4.882,4.882,0,0,1,7.321.128,4.612,4.612,0,0,1,6.217,2.276c1.458-1.22,3.85-.61,5.033.854a7.123,7.123,0,0,1,1.123,5.424,3.136,3.136,0,0,1,.177,5.46,5.393,5.393,0,0,1-1.379,7.376,6.2,6.2,0,0,1-3.38,6.015" transform="translate(-334.486 -81.036)" fill="#263238"/>
      <path id="Path_568" data-name="Path 568" d="M419.907,107.135l.909-2.215-13.867-2.953c-4.271-.561-9.035,3.66-9.407,7.931-.421,4.777-.738,10.634-.256,14.221.952,7.2,6.442,7.37,6.442,7.37l-.183,12.165,15.923-5.723Z" transform="translate(-336.772 -86.624)" fill="#ffbe9d"/>
      <path id="Path_569" data-name="Path 569" d="M400.55,122.849a.921.921,0,0,0,.866.952.885.885,0,0,0,.97-.811.927.927,0,0,0-.866-.952.885.885,0,0,0-.97.811Z" transform="translate(-338.139 -94.467)" fill="#263238"/>
      <path id="Path_570" data-name="Path 570" d="M400.221,119.407c.11.122.817-.378,1.83-.354s1.708.543,1.83.421-.061-.268-.372-.506a2.513,2.513,0,0,0-1.452-.488,2.44,2.44,0,0,0-1.446.433C400.27,119.157,400.166,119.37,400.221,119.407Z" transform="translate(-338.006 -93.082)" fill="#263238"/>
      <path id="Path_571" data-name="Path 571" d="M416.09,123.639a.921.921,0,0,0,.866.952.885.885,0,0,0,.97-.811.927.927,0,0,0-.866-.952.885.885,0,0,0-.97.811Z" transform="translate(-344.198 -94.775)" fill="#263238"/>
      <path id="Path_572" data-name="Path 572" d="M416.551,120.107c.11.122.824-.378,1.83-.348s1.708.537,1.83.421-.055-.275-.366-.512a2.544,2.544,0,0,0-1.452-.488,2.44,2.44,0,0,0-1.446.433C416.606,119.838,416.5,120.052,416.551,120.107Z" transform="translate(-344.373 -93.354)" fill="#263238"/>
      <path id="Path_573" data-name="Path 573" d="M408.42,127.354a6.712,6.712,0,0,0-1.6-.329c-.25-.031-.488-.085-.531-.262a1.306,1.306,0,0,1,.189-.744c.25-.61.519-1.22.793-1.91a39.8,39.8,0,0,0,1.83-5.009,35.9,35.9,0,0,0-2.2,4.881c-.268.671-.525,1.312-.763,1.922a1.482,1.482,0,0,0-.159.988.653.653,0,0,0,.409.384,1.7,1.7,0,0,0,.427.067,6.534,6.534,0,0,0,1.611.012Z" transform="translate(-340.244 -93.323)" fill="#263238"/>
      <path id="Path_574" data-name="Path 574" d="M407.977,148.789a18.992,18.992,0,0,0,9.932-2.349s-2.55,4.978-9.969,4.142Z" transform="translate(-341.021 -103.984)" fill="#eb996e"/>
      <path id="Path_575" data-name="Path 575" d="M417.58,111.947c.037.281,1.031.366,2.141.75s1.958.9,2.16.7c.092-.1,0-.384-.329-.72a2.331,2.331,0,0,0-1.513-.927,3.709,3.709,0,0,0-1.763-.171C417.836,111.648,417.568,111.819,417.58,111.947Z" transform="translate(-344.779 -90.375)" fill="#263238"/>
      <path id="Path_576" data-name="Path 576" d="M400.522,114.239c.183.22.86,0,1.678-.061s1.525.116,1.678-.122c.067-.116-.049-.342-.36-.549a2.44,2.44,0,0,0-2.715.171C400.535,113.9,400.443,114.13,400.522,114.239Z" transform="translate(-338.118 -91.013)" fill="#263238"/>
      <path id="Path_577" data-name="Path 577" d="M413.371,99.133a3.5,3.5,0,0,1-.921,1.5,1.22,1.22,0,0,1-1.617,0,1.6,1.6,0,0,1-2.44-.305,2.178,2.178,0,0,1-2.642.122l-2.16.354c-.787.122-1.757.177-2.2-.482-.1-.153-.177-.342-.336-.427a.982.982,0,0,0-.549,0,1.867,1.867,0,0,1-1.568-.842,5.49,5.49,0,0,1-.708-1.708c-.262-.915-.445-2.086.317-2.654a2.336,2.336,0,0,1,1.049-.354,5.49,5.49,0,0,1,2.269-.049,3.984,3.984,0,0,1,2.141,1.733,1.007,1.007,0,0,1,.683-1.22,1.977,1.977,0,0,1,1.489.22,3.971,3.971,0,0,1,1.58,1.495,3.239,3.239,0,0,1,2.8,1.928,2.349,2.349,0,0,1,1.83-.232.805.805,0,0,1,.537.378.372.372,0,0,1-.22.537" transform="translate(-337.148 -83.612)" fill="#263238"/>
      <path id="Path_578" data-name="Path 578" d="M403.651,100.869a2.373,2.373,0,0,1-3.77,2.568,2.184,2.184,0,0,1-2.532,1.281,3.435,3.435,0,0,1-1.916,2.922,2.648,2.648,0,0,1-.055,1.958,1.629,1.629,0,0,1-.86.915,1.83,1.83,0,0,1-1.476-.183,2.617,2.617,0,0,1-1.428-1.543,1.531,1.531,0,0,1,.775-1.83,5.692,5.692,0,0,1-1.324-2.129,1.83,1.83,0,0,1-.043-1.409.811.811,0,0,1,1.22-.329,2.147,2.147,0,0,1,.268-2.233,2.172,2.172,0,0,1,2.135-.726A1.757,1.757,0,0,1,397.618,99" transform="translate(-334.377 -85.293)" fill="#263238"/>
      <path id="Path_579" data-name="Path 579" d="M425.581,100.629a1.794,1.794,0,0,1,1.72-1.635,4.447,4.447,0,0,1,2.471.738,3.05,3.05,0,0,1,3.447-.689c1.135.525,1.83,1.678,2.727,2.526a6.315,6.315,0,0,1,1.373,1.421,1.287,1.287,0,0,1-.323,1.751,2.233,2.233,0,0,1,.433,3.911c-.207.14-.457.268-.555.506a.97.97,0,0,0,.03.61,23.052,23.052,0,0,1,.915,2.934,2.646,2.646,0,0,1-1.013,2.7c-.232.14-.519.238-.61.482a.811.811,0,0,0,0,.525,9.448,9.448,0,0,0,.641,1.623,2.44,2.44,0,0,1,.177,1.7,1.116,1.116,0,0,1-1.379.732,3.575,3.575,0,0,1-.537,3.307c-.763.879-3.142,1.171-4.49.244l.049-3.294c.214-.567-.519-3.7-.11-4.307,0,0,.866,2.2-1.33,1.72-.732.159-2.007-2.038-2.062-2.782a2,2,0,0,1,1.11-1.83,3.374,3.374,0,0,1-.61-4.271,1.83,1.83,0,0,1-.165-3.5,3.7,3.7,0,0,1-2.1-5.1" transform="translate(-347.68 -85.401)" fill="#263238"/>
      <path id="Path_580" data-name="Path 580" d="M432.88,124.832c.1-.049,4.136-1.446,4.2,2.739s-4.142,3.392-4.155,3.27S432.88,124.832,432.88,124.832Z" transform="translate(-350.745 -95.457)" fill="#ffbe9d"/>
      <path id="Path_581" data-name="Path 581" d="M435,130.116a1.368,1.368,0,0,0,.2.1.714.714,0,0,0,.543,0,1.787,1.787,0,0,0,.805-1.629,2.4,2.4,0,0,0-.22-1.043.86.86,0,0,0-.555-.549.372.372,0,0,0-.427.207c-.055.116,0,.2-.049.207s-.092-.067-.061-.238a.482.482,0,0,1,.159-.268.561.561,0,0,1,.4-.11,1.019,1.019,0,0,1,.775.61,2.441,2.441,0,0,1,.268,1.159,1.891,1.891,0,0,1-1.031,1.83.769.769,0,0,1-.671-.1C435,130.214,435,130.123,435,130.116Z" transform="translate(-351.572 -96.324)" fill="#eb996e"/>
      <path id="Path_582" data-name="Path 582" d="M412.988,134.841a1.482,1.482,0,0,0-1.257-.439,1.464,1.464,0,0,0-1.08.781,1.33,1.33,0,0,0-.067,1.1,1.263,1.263,0,0,0,2.4-.165c.122-.512.323-1.123-.128-1.4" transform="translate(-342.017 -99.286)" fill="#eb996e"/>
      <path id="Path_583" data-name="Path 583" d="M412.469,120.4a11.078,11.078,0,0,1,.268-1.1,4.63,4.63,0,0,1,1.867-2.373,4.55,4.55,0,0,1,7.01,4.124,4.588,4.588,0,0,1-1.062,2.611,4.428,4.428,0,0,1-1.025.891,4.125,4.125,0,0,1-1.184.537,4.576,4.576,0,0,1-4.271-.933,4.673,4.673,0,0,1-1.513-2.617c-.128-.72-.079-1.135-.11-1.135a3.661,3.661,0,0,0,0,1.153,4.594,4.594,0,0,0,1.495,2.721,4.692,4.692,0,0,0,4.411,1.019,4.564,4.564,0,0,0,1.22-.555,4.448,4.448,0,0,0,1.123-.933,4.728,4.728,0,0,0,.4-5.607,4.428,4.428,0,0,0-.933-1.08,4.618,4.618,0,0,0-1.159-.726,4.722,4.722,0,0,0-2.471-.366,4.771,4.771,0,0,0-2.044.756,4.643,4.643,0,0,0-1.861,2.489,3.716,3.716,0,0,0-.159,1.129Z" transform="translate(-342.762 -92.113)" fill="#455a64"/>
      <path id="Path_584" data-name="Path 584" d="M393.467,119.055a10.616,10.616,0,0,1,.268-1.1,4.606,4.606,0,0,1,1.867-2.379,4.545,4.545,0,0,1,4.332-.329,4.332,4.332,0,0,1,1.1.7,4.483,4.483,0,0,1,.885,1.025,4.618,4.618,0,0,1,.689,2.733,4.551,4.551,0,0,1-1.068,2.605,4.27,4.27,0,0,1-1.019.9,4.491,4.491,0,0,1-5.411-.4,4.624,4.624,0,0,1-1.513-2.611,9.876,9.876,0,0,1-.11-1.135,3.66,3.66,0,0,0,0,1.147,4.655,4.655,0,0,0,1.495,2.727,4.746,4.746,0,0,0,1.916,1.037,4.67,4.67,0,0,0,4.826-1.495,4.71,4.71,0,0,0,.39-5.607,4.666,4.666,0,0,0-4.557-2.2,4.679,4.679,0,0,0-3.9,3.239A3.526,3.526,0,0,0,393.467,119.055Z" transform="translate(-335.369 -91.582)" fill="#455a64"/>
      <path id="Path_585" data-name="Path 585" d="M427.66,122.78a5.418,5.418,0,0,0,1.641.824,6.052,6.052,0,0,0,1.775.482,9.626,9.626,0,0,0-1.69-.7A11.368,11.368,0,0,0,427.66,122.78Z" transform="translate(-348.71 -94.759)" fill="#455a64"/>
      <path id="Path_586" data-name="Path 586" d="M408,120.622a7.815,7.815,0,0,1,1.537,0,8.237,8.237,0,0,1,1.446.506,2.111,2.111,0,0,0-1.409-.738,2.08,2.08,0,0,0-1.574.232Z" transform="translate(-341.044 -93.802)" fill="#455a64"/>
      <path id="Path_587" data-name="Path 587" d="M422.33,126.982a1.654,1.654,0,0,0,.75-.232,3.66,3.66,0,0,0,1.977-3.1,1.482,1.482,0,0,0-.11-.781c-.037,0,0,.3-.055.769A3.935,3.935,0,0,1,423,126.6a6.853,6.853,0,0,0-.671.378Z" transform="translate(-346.632 -94.794)" fill="#fff"/>
      <path id="Path_588" data-name="Path 588" d="M403.5,125.566a1.4,1.4,0,0,0,.708-.232,3.5,3.5,0,0,0,1.867-2.916,1.458,1.458,0,0,0-.085-.738,6.263,6.263,0,0,0-.079.72,3.874,3.874,0,0,1-1.788,2.794C403.75,125.432,403.488,125.536,403.5,125.566Z" transform="translate(-339.289 -94.33)" fill="#fff"/>
      <path id="Path_589" data-name="Path 589" d="M412.852,133.11c.079,0,.171.311.061.811a2.611,2.611,0,0,1-1.177,1.592,2.562,2.562,0,0,1-1.958.287c-.494-.134-.726-.366-.689-.427s.317,0,.757,0a2.751,2.751,0,0,0,2.66-1.6C412.693,133.391,412.766,133.1,412.852,133.11Z" transform="translate(-341.467 -98.786)" fill="#263238"/>
      <path id="Path_590" data-name="Path 590" d="M433.986,93.645a.958.958,0,0,1,.226-.134,4.054,4.054,0,0,1,.7-.323,3.886,3.886,0,0,1,2.843,0,5.863,5.863,0,0,1,2.977,3.16,7.454,7.454,0,0,1,.543,2.629,3.991,3.991,0,0,1-.22,1.446,2.758,2.758,0,0,1-.9,1.22l-.037-.25a3.343,3.343,0,0,1,.982,5.588,2.72,2.72,0,0,1-.214.177V106.9a2.635,2.635,0,0,1,1.342,1.629,4.453,4.453,0,0,1,.134,2.038,16.7,16.7,0,0,1-1.324,3.538,8.081,8.081,0,0,0-.5,1.647c-.1.549-.153,1.1-.244,1.629a5.076,5.076,0,0,1-1.257,2.7,5.527,5.527,0,0,1-3.831,1.83,4.735,4.735,0,0,1-1.165-.1,2.362,2.362,0,0,1-.391-.122,7.1,7.1,0,0,0,1.55.11,5.491,5.491,0,0,0,3.66-1.83,4.88,4.88,0,0,0,1.165-2.593c.079-.519.128-1.068.226-1.635a8.446,8.446,0,0,1,.5-1.7,17.079,17.079,0,0,0,1.293-3.477,4.27,4.27,0,0,0-.128-1.9,2.355,2.355,0,0,0-1.184-1.452l-.214-.1.183-.159c.061-.055.128-.1.189-.165a3.111,3.111,0,0,0,.952-2.886,3.154,3.154,0,0,0-1.83-2.208l-.238-.1.2-.153A2.947,2.947,0,0,0,441,99a7.222,7.222,0,0,0-.5-2.532,5.722,5.722,0,0,0-2.819-3.093,3.868,3.868,0,0,0-2.745-.1,4.54,4.54,0,0,0-.7.275A1.129,1.129,0,0,1,433.986,93.645Z" transform="translate(-351.046 -83.115)" fill="#455a64"/>
      <path id="Path_591" data-name="Path 591" d="M431.723,92.78a1.287,1.287,0,0,1,.39.348,3.252,3.252,0,0,1,.634,1.293,3.392,3.392,0,0,1-.122,2.135,3.539,3.539,0,0,1-3.66,2.129l.128-.049a4.344,4.344,0,0,1-3.209,1.33,3.99,3.99,0,0,1-1.013-.153.94.94,0,0,1-.342-.146,10.316,10.316,0,0,0,1.348.116,4.368,4.368,0,0,0,3-1.348l.049-.049H429a3.228,3.228,0,0,0,3.538-3.923A4.4,4.4,0,0,0,431.723,92.78Z" transform="translate(-347.49 -83.061)" fill="#455a64"/>
      <path id="Path_592" data-name="Path 592" d="M435.17,94.1a.826.826,0,0,1,.11.128,2.768,2.768,0,0,1,.256.427,4.508,4.508,0,0,1,.433,1.781,4.7,4.7,0,0,1-.7,2.623,4.514,4.514,0,0,1-2.7,1.928,4.624,4.624,0,0,1-2.831-.134l.177-.061a3.349,3.349,0,0,1-1.83,1.434,3.209,3.209,0,0,1-1.83.049,3.051,3.051,0,0,1-1.068-.525,1.1,1.1,0,0,1-.305-.293,4.618,4.618,0,0,0,1.415.61,3.13,3.13,0,0,0,1.7-.1,3.185,3.185,0,0,0,1.647-1.354l.061-.1.116.043a4.411,4.411,0,0,0,2.648.11,4.313,4.313,0,0,0,2.538-1.788,4.539,4.539,0,0,0,.714-2.44A5.588,5.588,0,0,0,435.17,94.1Z" transform="translate(-347.63 -83.576)" fill="#455a64"/>
      <path id="Path_593" data-name="Path 593" d="M307.675,193l.61.61a.366.366,0,0,0,.238.134.336.336,0,0,0,.268-.207,1.513,1.513,0,0,0,.091-1.22,2.574,2.574,0,0,0-.677-1.031.732.732,0,0,0-.5-.256.775.775,0,0,0-.488.262c-.183.183-.366.366-.531.561a.439.439,0,0,0-.146.336.427.427,0,0,0,.165.226c.275.244.677.36.946.61" transform="translate(-301.482 -121.371)" fill="#eb996e"/>
      <path id="Path_594" data-name="Path 594" d="M309.726,176.145c-.927-.079-5.088-.7-5.088-.7l-6.388,1.22s.2,1.83,1.513,1.7,2.758-.122,2.758-.122l2.288.378s-3.27,1.995-3.319,2.44a1.83,1.83,0,0,0,.183.891,3.289,3.289,0,0,0-.2,2.312l-.03,2.989,2.922,2.208a2.44,2.44,0,0,0,.311-1.6c-.171-.848-1.3-1.385-1.3-1.385l.75-1.22,1.074-.329s6.821,2.233,8.431,2.19l1.354,1.3,5.173-6.357S310.653,176.219,309.726,176.145Z" transform="translate(-298.25 -115.296)" fill="#ffbe9d"/>
      <path id="Path_595" data-name="Path 595" d="M307.4,186.57c0,.085-.872.409-1.885.97s-1.769,1.147-1.83,1.086a6.418,6.418,0,0,1,3.709-2.056Z" transform="translate(-300.367 -119.632)" fill="#eb996e"/>
      <path id="Path_596" data-name="Path 596" d="M308.2,182.78a19.723,19.723,0,0,1-2.05,1.049,17.59,17.59,0,0,1-2.044,1.068,6.193,6.193,0,0,1,1.91-1.33A6.033,6.033,0,0,1,308.2,182.78Z" transform="translate(-300.535 -118.154)" fill="#eb996e"/>
      <path id="Path_597" data-name="Path 597" d="M312.336,177.39a13.061,13.061,0,0,1-1.7,1.165,5.662,5.662,0,0,1-1.83.946,10.687,10.687,0,0,1,1.684-1.22,5.094,5.094,0,0,1,1.842-.891Z" transform="translate(-302.368 -116.052)" fill="#eb996e"/>
      <path id="Path_598" data-name="Path 598" d="M413.906,176.191,406.585,212.5s5.613,14.416,4.734,21.09c-.506,3.874-2.867,12.311-2.867,12.311l-36.873-12.36a3.764,3.764,0,0,1-2.44-4.148c1.6-9.615,6.54-38.886,8.5-45.438,3.313-11.109,13.544-24.025,13.544-24.025h0l.2-3.776,18.644.268-.11,3.813S416.01,167.095,413.906,176.191Z" transform="translate(-325.872 -107.77)" fill="#ffc100"/>
      <path id="Path_599" data-name="Path 599" d="M383.2,168.573c2.233-.61,2.544.238,6.137,1.83s4.271,10.335,4.271,10.335l-5.027,8.864-26.648,15.362s-5.43,3.856-13.922-1.983c-3.117-2.141-24.232-16.094-24.232-16.094l6.15-9.291,24.934,11.219Z" transform="translate(-308.205 -112.537)" fill="#ffc100"/>
      <g id="Group_176" data-name="Group 176" transform="translate(60.099 72.728)" opacity="0.3">
        <path id="Path_600" data-name="Path 600" d="M398.773,210.9,421,196.438a1.831,1.831,0,0,1,.915-.378,1.22,1.22,0,0,1,1.074,1.293,2.952,2.952,0,0,1-.793,1.672c-2.08,2.5-5.155,3.923-8.126,5.259-5.07,2.282-12.244,5.57-17.314,7.852Z" transform="translate(-396.76 -196.06)"/>
      </g>
      <path id="Path_601" data-name="Path 601" d="M383.384,173.28s-.037.037-.11.1l-.348.268-1.348.988-4.99,3.6L360.043,190.02c-.366.256-.732.512-1.068.756l-.079.049-.079-.037-17.741-7.919-5.308-2.44-1.434-.671-.372-.177-.122-.073a.339.339,0,0,1,.134.043l.384.153,1.458.61,5.363,2.33,17.772,7.858H358.8l1.068-.757,16.594-11.707,5.051-3.514,1.385-.946.366-.238Q383.354,173.274,383.384,173.28Z" transform="translate(-312.127 -114.449)" fill="#263238"/>
      <path id="Path_602" data-name="Path 602" d="M406.406,198.7a2.441,2.441,0,0,1-.39.305c-.262.2-.653.47-1.159.817-1.013.7-2.489,1.69-4.325,2.9-3.66,2.44-8.773,5.723-14.5,9.237-2.861,1.751-5.6,3.4-8.181,4.759-.323.177-.647.336-.976.476l-.488.22-.5.171a9.835,9.835,0,0,1-1.977.433,11.518,11.518,0,0,1-3.618-.159,13.565,13.565,0,0,1-2.843-.9c-.409-.159-.763-.36-1.1-.519s-.61-.354-.891-.512c-.525-.329-.921-.61-1.177-.793a2.954,2.954,0,0,1-.39-.305,3.35,3.35,0,0,1,.427.256c.268.183.671.427,1.22.738l.9.482c.342.146.7.342,1.1.494a14.029,14.029,0,0,0,2.818.842,10.646,10.646,0,0,0,7.382-1.184c2.556-1.354,5.289-3.05,8.151-4.771,5.716-3.508,10.835-6.778,14.538-9.151l4.38-2.819,1.19-.763A3.347,3.347,0,0,1,406.406,198.7Z" transform="translate(-323.845 -124.362)" fill="#263238"/>
      <path id="Path_603" data-name="Path 603" d="M430.232,169.588c-.037.049-.573-.439-1.592-.982a9.279,9.279,0,0,0-8.62-.134c-1.031.512-1.586.982-1.623.933s.116-.146.366-.354a7.322,7.322,0,0,1,1.153-.781,9.072,9.072,0,0,1,4.435-1.11,8.962,8.962,0,0,1,4.4,1.251,7.55,7.55,0,0,1,1.135.811C430.128,169.441,430.25,169.576,430.232,169.588Z" transform="translate(-345.096 -112.063)" fill="#263238"/>
      <path id="Path_604" data-name="Path 604" d="M423.739,162.53a3.423,3.423,0,0,1-.7.2c-.451.11-1.11.244-1.934.378a37.678,37.678,0,0,1-12.958-.159c-.817-.153-1.47-.3-1.922-.427a3.165,3.165,0,0,1-.689-.214,2.806,2.806,0,0,1,.714.1c.458.085,1.116.2,1.94.323a46.92,46.92,0,0,0,6.436.543,47.515,47.515,0,0,0,6.448-.384c.824-.11,1.483-.207,1.94-.281A2.872,2.872,0,0,1,423.739,162.53Z" transform="translate(-340.085 -110.172)" fill="#263238"/>
      <path id="Path_605" data-name="Path 605" d="M420.31,229a15.4,15.4,0,0,1,.891,1.8c.519,1.123,1.257,2.66,2.129,4.338s1.7,3.166,2.312,4.271a13.548,13.548,0,0,1,.958,1.763,11.369,11.369,0,0,1-1.147-1.647c-.665-1.049-1.537-2.532-2.41-4.216s-1.58-3.246-2.05-4.393A10.378,10.378,0,0,1,420.31,229Z" transform="translate(-345.844 -136.176)" fill="#263238"/>
      <path id="Path_606" data-name="Path 606" d="M380.87,282.019a12.879,12.879,0,0,0,1.22-2.7,13.093,13.093,0,0,0,.232-2.947,5.594,5.594,0,0,1-1.428,5.649Z" transform="translate(-330.466 -154.647)" fill="#263238"/>
      <path id="Path_607" data-name="Path 607" d="M397.7,281.31a1.952,1.952,0,0,1,.177.933,5.686,5.686,0,0,1-1.641,4.179c-.421.415-.738.61-.763.561a9.622,9.622,0,0,0,1.72-2.6A9.76,9.76,0,0,0,397.7,281.31Z" transform="translate(-336.158 -156.573)" fill="#263238"/>
      <path id="Path_608" data-name="Path 608" d="M415.774,285.79a7.986,7.986,0,0,1-2.154,6.595,19.729,19.729,0,0,0,1.531-3.148A19.989,19.989,0,0,0,415.774,285.79Z" transform="translate(-343.236 -158.32)" fill="#263238"/>
      <path id="Path_609" data-name="Path 609" d="M428.585,289.39a3.172,3.172,0,0,1,.244,1.116,9.84,9.84,0,0,1-1.019,5.375,2.887,2.887,0,0,1-.641.946,19.7,19.7,0,0,0,1.22-3.618A20.464,20.464,0,0,0,428.585,289.39Z" transform="translate(-348.519 -159.724)" fill="#263238"/>
    </g>
    <g id="freepik--Plant--inject-138" transform="translate(40.882 180.526)">
      <rect id="Rectangle_661" data-name="Rectangle 661" width="48.891" height="6.717" transform="translate(21.052 91.536)" fill="#263238"/>
      <path id="Path_610" data-name="Path 610" d="M75.25,411h49.062v6.888H75.25Zm48.891.165H75.415v6.546h48.727Z" transform="translate(-54.283 -319.519)" fill="#263238"/>
      <path id="Path_611" data-name="Path 611" d="M122.611,418.44l-7.04,34.713H89.532l-6.8-32.48Z" transform="translate(-57.2 -322.42)" fill="#263238"/>
      <path id="Path_612" data-name="Path 612" d="M122.611,469.96l-3.758,5.161H87.208L82.73,469.96Z" transform="translate(-57.2 -342.509)" fill="#455a64"/>
      <path id="Path_613" data-name="Path 613" d="M118.406,374.179c.092,0,.22-16.088.275-35.921s0-35.927-.073-35.927-.22,16.082-.275,35.927S118.308,374.179,118.406,374.179Z" transform="translate(-71.071 -277.146)" fill="#263238"/>
      <path id="Path_614" data-name="Path 614" d="M100.62,354.12a1.4,1.4,0,0,0,.128.372c.116.275.256.61.439,1.043l.317.75c.1.281.207.61.323.909s.244.683.378,1.049.232.775.36,1.22a48,48,0,0,1,1.367,5.985,73.436,73.436,0,0,1,.763,7.486,101.751,101.751,0,0,1-.39,13.678c-.159,1.745-.317,3.154-.433,4.13-.049.451-.092.824-.122,1.123a1.574,1.574,0,0,0,0,.39,1.555,1.555,0,0,0,.091-.384c.049-.293.11-.659.183-1.11.159-.97.354-2.379.543-4.124a89.532,89.532,0,0,0,.494-13.721,68.993,68.993,0,0,0-.793-7.522,45.145,45.145,0,0,0-1.446-6c-.14-.421-.25-.824-.39-1.22l-.4-1.043-.354-.909c-.122-.268-.244-.519-.348-.738l-.5-1.019a1.99,1.99,0,0,0-.207-.342Z" transform="translate(-64.175 -297.34)" fill="#263238"/>
      <path id="Path_615" data-name="Path 615" d="M102.66,332.8a4.442,4.442,0,0,0,.159.531l.506,1.495c.116.323.238.683.378,1.074l.384,1.293c.287.933.61,1.989.915,3.178.153.61.317,1.22.488,1.83l.458,2.032c.342,1.4.61,2.922.9,4.515.537,3.191,1.013,6.711,1.342,10.451s.445,7.29.488,10.53-.031,6.162-.165,8.608c-.043,1.22-.122,2.331-.183,3.307s-.116,1.83-.177,2.489-.092,1.184-.122,1.574a3.172,3.172,0,0,0,0,.555,3.416,3.416,0,0,0,.092-.543q.067-.61.183-1.574c.079-.677.165-1.519.238-2.489s.177-2.08.238-3.307c.165-2.44.232-5.375.238-8.62s-.153-6.821-.464-10.56-.817-7.278-1.373-10.481c-.323-1.592-.61-3.111-.94-4.515l-.476-2.038c-.183-.641-.354-1.263-.512-1.83-.311-1.19-.665-2.245-.964-3.172-.153-.464-.293-.9-.427-1.293l-.39-1.086c-.238-.61-.427-1.1-.567-1.476A2.6,2.6,0,0,0,102.66,332.8Z" transform="translate(-64.971 -289.027)" fill="#263238"/>
      <path id="Path_616" data-name="Path 616" d="M123.524,378.433a.879.879,0,0,0,0-.189,2.439,2.439,0,0,1,.049-.549c0-.512.079-1.22.14-2.135.122-1.873.287-4.545.494-7.833.421-6.613,1.037-15.752,2.147-25.8.567-5.021,1.22-9.792,1.916-14.117.366-2.16.7-4.216,1.068-6.1s.714-3.691,1.055-5.314.683-3.05.97-4.362.555-2.385.787-3.282l.506-2.074c.049-.22.092-.4.122-.543a.531.531,0,0,0,.03-.183.66.66,0,0,0-.061.177l-.159.531c-.14.494-.329,1.184-.573,2.056s-.543,1.989-.842,3.276-.683,2.733-1.019,4.356-.744,3.392-1.1,5.314-.732,3.965-1.1,6.1c-.7,4.332-1.373,9.1-1.946,14.135-1.11,10.06-1.684,19.205-2.05,25.825-.177,3.307-.305,5.991-.378,7.839,0,.909-.061,1.623-.079,2.135v.555A.61.61,0,0,0,123.524,378.433Z" transform="translate(-73.097 -278.557)" fill="#263238"/>
      <path id="Path_617" data-name="Path 617" d="M114.388,312.426a4.847,4.847,0,0,1,4.8-4.026,7.574,7.574,0,0,1,5.826,3.16,18.186,18.186,0,0,1,2.8,6.223,42.176,42.176,0,0,1,1.727,16.557,25.038,25.038,0,0,1-6.888,14.922,2.909,2.909,0,0,1-2.373,1.086,2.861,2.861,0,0,1-1.257-.775,37.08,37.08,0,0,1-12.031-28.167,11.514,11.514,0,0,1,1.507-6.058c1.165-1.757,3.892-3.624,5.881-2.916" transform="translate(-66.657 -279.512)" fill="#ffc100"/>
      <path id="Path_618" data-name="Path 618" d="M147.13,279.76l3.221,5.838c.079.134.177.287.329.3s.3-.146.39-.287l8.541-13.08-1.964-1.11Z" transform="translate(-82.311 -265.093)" fill="#ffc100"/>
      <g id="Group_177" data-name="Group 177" transform="translate(64.819 6.327)" opacity="0.2">
        <path id="Path_619" data-name="Path 619" d="M147.13,279.76l3.221,5.838c.079.134.177.287.329.3s.3-.146.39-.287l8.541-13.08-1.964-1.11Z" transform="translate(-147.13 -271.42)"/>
      </g>
      <path id="Path_620" data-name="Path 620" d="M117.261,286.234l29.064-17.155a1.306,1.306,0,0,0,.708-.738c.122-.427-.2-.842-.512-1.159a20.035,20.035,0,0,0-15.539-6.1,17.753,17.753,0,0,0-14.032,8.736c-2.8,5.009-2.9,11.64.323,16.4" transform="translate(-69.725 -261.049)" fill="#ffc100"/>
      <path id="Path_621" data-name="Path 621" d="M143.542,265.176a1.519,1.519,0,0,0-.384-.049c-.25,0-.61-.055-1.1-.049a21.762,21.762,0,0,0-4.033.317,23.592,23.592,0,0,0-18.815,17.027,22.175,22.175,0,0,0-.72,3.978c-.049.476,0,.61-.043.848a1.421,1.421,0,0,0,.226.61,4.759,4.759,0,0,1-.049-1.464,25.452,25.452,0,0,1,.824-3.929,24.183,24.183,0,0,1,22.609-17.277A14.677,14.677,0,0,0,143.542,265.176Z" transform="translate(-71.128 -262.619)" fill="#263238"/>
      <path id="Path_622" data-name="Path 622" d="M125.25,282.92a6.624,6.624,0,0,0,1.47.671c.921.366,2.221.83,3.66,1.293s2.776.824,3.74,1.062a6.975,6.975,0,0,0,1.586.3,7.7,7.7,0,0,0-1.519-.537l-3.7-1.159-3.66-1.19A8.379,8.379,0,0,0,125.25,282.92Z" transform="translate(-73.779 -269.577)" fill="#263238"/>
      <path id="Path_623" data-name="Path 623" d="M132.527,262.77a20.493,20.493,0,0,0-.165,6.5,59.7,59.7,0,0,0,.165-6.5Z" transform="translate(-76.481 -261.72)" fill="#263238"/>
      <path id="Path_624" data-name="Path 624" d="M157.385,271.4a13.575,13.575,0,0,0-2.111-.744c-1.324-.4-3.16-.921-5.21-1.415s-3.923-.872-5.283-1.11a12.676,12.676,0,0,0-2.221-.3,16.467,16.467,0,0,0,2.172.543c1.348.3,3.2.714,5.253,1.22s3.886.97,5.222,1.312a15.182,15.182,0,0,0,2.178.494Z" transform="translate(-80.529 -263.693)" fill="#263238"/>
      <path id="Path_625" data-name="Path 625" d="M138.078,305.514c2.5-1.9,5.143-2.269,8.279-2.147a25.288,25.288,0,0,1,9.06,2.343c4.881,2.147,9.5,5.308,12.433,9.761s3.953,10.408,1.757,15.288a2.184,2.184,0,0,1-.994,1.22,2.367,2.367,0,0,1-1.641-.128c-5.57-1.83-11.189-3.66-16.313-6.5s-9.792-6.79-12.519-11.97a10.371,10.371,0,0,1-1.318-3.978,4.935,4.935,0,0,1,1.281-3.886" transform="translate(-78.28 -277.542)" fill="#ffc100"/>
      <path id="Path_626" data-name="Path 626" d="M138.82,305.94a1.782,1.782,0,0,0,.4.159l1.171.4.842.281c.311.116.61.25.988.39.708.281,1.525.567,2.391.988l1.367.61c.47.22.946.488,1.446.744,1.013.494,2.032,1.129,3.124,1.769a48.908,48.908,0,0,1,12.3,10.8c.775.994,1.531,1.928,2.154,2.867.317.464.647.9.921,1.342s.537.872.793,1.275c.525.805.909,1.58,1.281,2.245.183.336.36.641.512.927l.384.805.549,1.1a1.708,1.708,0,0,0,.214.378,2.188,2.188,0,0,0-.153-.4c-.122-.293-.287-.671-.488-1.135l-.36-.824c-.14-.293-.311-.61-.482-.946-.36-.677-.732-1.464-1.22-2.276l-.781-1.3c-.275-.445-.61-.885-.909-1.361-.61-.952-1.373-1.9-2.147-2.9A50.85,50.85,0,0,0,157.4,315.9a52.047,52.047,0,0,0-6.662-4.911c-1.1-.61-2.135-1.263-3.154-1.751-.506-.256-.988-.519-1.47-.732l-1.379-.61c-.872-.409-1.7-.677-2.44-.946-.36-.134-.7-.262-1.007-.36l-.854-.256-1.22-.342a1.831,1.831,0,0,0-.39-.055Z" transform="translate(-79.071 -278.553)" fill="#263238"/>
      <path id="Path_627" data-name="Path 627" d="M170.83,323.27a58.984,58.984,0,0,0,6.1,1.958,57.961,57.961,0,0,0,6.18,1.629,58.992,58.992,0,0,0-6.1-1.958,58.414,58.414,0,0,0-6.18-1.629Z" transform="translate(-91.552 -285.311)" fill="#263238"/>
      <path id="Path_628" data-name="Path 628" d="M170.991,337a9.448,9.448,0,0,0,.134-1.9c0-1.171.037-2.788,0-4.576s-.146-3.4-.244-4.576a10.412,10.412,0,0,0-.238-1.885,10.717,10.717,0,0,0,0,1.9c.037,1.281.085,2.843.14,4.563s.079,3.288.116,4.569A11.055,11.055,0,0,0,170.991,337Z" transform="translate(-91.463 -285.623)" fill="#263238"/>
      <path id="Path_629" data-name="Path 629" d="M152.381,326.261c.092,0,.4-3.282.683-7.351s.427-7.364.336-7.37-.4,3.282-.683,7.321S152.283,326.255,152.381,326.261Z" transform="translate(-84.347 -280.737)" fill="#263238"/>
      <path id="Path_630" data-name="Path 630" d="M167.369,310.951a10.5,10.5,0,0,0-1.946-.055c-1.22,0-2.861.043-4.691.1s-3.5.134-4.691.207a10.463,10.463,0,0,0-1.94.183,10.767,10.767,0,0,0,1.946.061c1.22,0,2.861-.043,4.691-.1s3.5-.134,4.691-.207A10.731,10.731,0,0,0,167.369,310.951Z" transform="translate(-85.029 -280.477)" fill="#263238"/>
      <path id="Path_631" data-name="Path 631" d="M126.233,352.644a1.776,1.776,0,0,0,.043-.384c0-.293.031-.665.049-1.123.049-.97.055-2.379,0-4.118s-.146-3.807-.36-6.1-.555-4.8-1.019-7.412-1.062-5.082-1.659-7.321-1.22-4.2-1.83-5.845-1.08-2.965-1.464-3.856l-.445-1.037a1.477,1.477,0,0,0-.177-.348,1.83,1.83,0,0,0,.11.378c.1.275.226.61.384,1.049.342.909.811,2.239,1.36,3.886s1.141,3.63,1.739,5.851,1.141,4.679,1.617,7.284.805,5.1,1.049,7.382.366,4.344.433,6.1.1,3.136.092,4.106v1.116A1.763,1.763,0,0,0,126.233,352.644Z" transform="translate(-71.487 -282.125)" fill="#263238"/>
      <path id="Path_632" data-name="Path 632" d="M128.11,345.45a8.544,8.544,0,0,0,1.159,1.269c.75.75,1.83,1.757,3.05,2.825s2.355,1.995,3.2,2.648a7.93,7.93,0,0,0,1.415.982A8.62,8.62,0,0,0,135.675,352l-3.124-2.715-3.1-2.739A9.4,9.4,0,0,0,128.11,345.45Z" transform="translate(-74.894 -293.959)" fill="#263238"/>
      <path id="Path_633" data-name="Path 633" d="M113,350.051a14.454,14.454,0,0,0,1.22-1.714l2.873-4.191L120.028,340a13.332,13.332,0,0,0,1.171-1.757,12.5,12.5,0,0,0-1.373,1.6c-.805,1.025-1.885,2.471-3.02,4.1s-2.111,3.148-2.794,4.271A11.414,11.414,0,0,0,113,350.051Z" transform="translate(-69.003 -291.148)" fill="#263238"/>
      <path id="Path_634" data-name="Path 634" d="M120.93,319.388c-.055.079,3,2.135,6.827,4.594s6.961,4.386,7.01,4.3-3-2.135-6.827-4.594S120.972,319.309,120.93,319.388Z" transform="translate(-72.094 -283.796)" fill="#263238"/>
      <path id="Path_635" data-name="Path 635" d="M106.8,329.021a58.562,58.562,0,0,0,4.624-4.271,56.912,56.912,0,0,0,4.38-4.521,57.147,57.147,0,0,0-4.624,4.27,55.714,55.714,0,0,0-4.38,4.521Z" transform="translate(-66.585 -284.125)" fill="#263238"/>
      <path id="Path_636" data-name="Path 636" d="M78.931,322.1l-2.593-.2a13,13,0,0,1-5.3-1.617,21.187,21.187,0,0,0-2.44-1.22c-3.246-1.3-6.863-1.068-10.371-1.22a42.87,42.87,0,0,1-16.472-4.21,1.623,1.623,0,0,1-.72-.653c-.537-.982.464-1.83,1.324-2.385,4.417-2.727,8.919-5.491,13.934-6.833s10.7-1.123,14.977,1.83c5.021,3.453,6.851,10.554,7.7,16.588" transform="translate(-40.882 -277.398)" fill="#ffc100"/>
      <path id="Path_637" data-name="Path 637" d="M41,314.141a2.44,2.44,0,0,0,.445-.207l1.22-.647c1.08-.567,2.629-1.409,4.594-2.349a43.175,43.175,0,0,1,7.113-2.739,23.422,23.422,0,0,1,9.2-.744,15.709,15.709,0,0,1,8.4,3.606,18.687,18.687,0,0,1,4.411,6.143c.921,1.964,1.489,3.66,1.9,4.783.2.549.348.988.464,1.324a3.624,3.624,0,0,0,.183.458,2.057,2.057,0,0,0-.116-.476c-.1-.342-.238-.787-.4-1.348a44.056,44.056,0,0,0-1.83-4.844,18.6,18.6,0,0,0-4.38-6.278,15.941,15.941,0,0,0-8.572-3.715,23.561,23.561,0,0,0-9.346.781,41.6,41.6,0,0,0-7.132,2.831c-1.952.97-3.49,1.83-4.551,2.44l-1.22.708A2.721,2.721,0,0,0,41,314.141Z" transform="translate(-40.928 -278.945)" fill="#263238"/>
      <path id="Path_638" data-name="Path 638" d="M51.3,317.769c.055.079,3.484-2.141,7.663-4.954s7.522-5.167,7.473-5.247-3.49,2.135-7.669,4.954S51.245,317.69,51.3,317.769Z" transform="translate(-44.944 -279.187)" fill="#263238"/>
      <path id="Path_639" data-name="Path 639" d="M57.3,307.269a8.454,8.454,0,0,0,2.5.451,8.4,8.4,0,0,0,2.55-.037,17.086,17.086,0,0,0-2.52-.256,17.287,17.287,0,0,0-2.526-.159Z" transform="translate(-47.284 -279.071)" fill="#263238"/>
      <path id="Path_640" data-name="Path 640" d="M81.92,304.06a6.766,6.766,0,0,0,1.129,1.757,7.686,7.686,0,0,0,1.421,1.623,6.637,6.637,0,0,0-1.123-1.757,7.619,7.619,0,0,0-1.428-1.623Z" transform="translate(-56.884 -277.82)" fill="#263238"/>
      <path id="Path_641" data-name="Path 641" d="M76.88,322.886A8.922,8.922,0,0,0,78.533,322c.988-.61,2.33-1.482,3.764-2.526s2.69-2.019,3.6-2.739a10.312,10.312,0,0,0,1.421-1.22,9.521,9.521,0,0,0-1.568,1.025l-3.66,2.654c-1.428,1.037-2.739,1.946-3.66,2.6a11.945,11.945,0,0,0-1.55,1.1Z" transform="translate(-54.919 -282.285)" fill="#263238"/>
      <path id="Path_642" data-name="Path 642" d="M83.019,351.843c2.5-.659,5.491,1.775,6,4.313s-.433,5.131-1.55,7.467A37.579,37.579,0,0,1,77.1,377.161a25.649,25.649,0,0,1-15.825,5.826c1.062-4.917-.275-10.048.311-15.038a19.565,19.565,0,0,1,17.326-17.155c1.6-.177,3.447-.427,4.088,1.049" transform="translate(-48.832 -295.99)" fill="#ffc100"/>
      <path id="Path_643" data-name="Path 643" d="M61.31,383.748a1.762,1.762,0,0,0,.36-.165,7.093,7.093,0,0,0,.933-.61,9.761,9.761,0,0,0,2.471-3.307c.4-.775.848-1.617,1.281-2.55s.872-1.928,1.348-2.971a28.36,28.36,0,0,1,1.653-3.185,24.654,24.654,0,0,1,2.276-3.093c1.714-2.013,3.551-3.758,5.149-5.417a35.76,35.76,0,0,0,3.923-4.722,17.131,17.131,0,0,0,1.916-3.66c.159-.464.275-.824.336-1.074a1.763,1.763,0,0,0,.079-.384c-.037,0-.177.512-.543,1.409a18.735,18.735,0,0,1-1.995,3.569,37.211,37.211,0,0,1-3.947,4.624c-1.6,1.647-3.447,3.38-5.18,5.418a24.5,24.5,0,0,0-2.318,3.136,28.4,28.4,0,0,0-1.653,3.227l-1.318,2.989c-.421.927-.854,1.775-1.22,2.55a10.079,10.079,0,0,1-2.337,3.319C61.786,383.48,61.291,383.712,61.31,383.748Z" transform="translate(-48.847 -296.751)" fill="#263238"/>
      <path id="Path_644" data-name="Path 644" d="M80.526,389.892a7.93,7.93,0,0,0-.232-1.684c-.2-1.031-.519-2.44-.952-3.984s-.9-2.916-1.269-3.9a7.536,7.536,0,0,0-.683-1.556,8.853,8.853,0,0,0,.451,1.635c.311,1,.732,2.379,1.165,3.911s.793,2.934,1.049,3.947A8.933,8.933,0,0,0,80.526,389.892Z" transform="translate(-55.118 -306.951)" fill="#263238"/>
      <path id="Path_645" data-name="Path 645" d="M62.09,375.45a10.165,10.165,0,0,0,1.763-.4c1.08-.281,2.568-.665,4.228-1.043s3.166-.659,4.271-.866a10.4,10.4,0,0,0,1.769-.39,8.2,8.2,0,0,0-1.83.146c-1.11.146-2.636.4-4.271.775s-3.154.8-4.216,1.141A8.489,8.489,0,0,0,62.09,375.45Z" transform="translate(-49.152 -304.601)" fill="#263238"/>
      <path id="Path_646" data-name="Path 646" d="M95.586,374.644a10.138,10.138,0,0,0-.275-1.952c-.22-1.22-.567-2.837-1.037-4.63s-.964-3.4-1.354-4.551a10.717,10.717,0,0,0-.72-1.83,12.814,12.814,0,0,0,.488,1.9c.329,1.171.787,2.776,1.257,4.563s.854,3.416,1.135,4.6A12.007,12.007,0,0,0,95.586,374.644Z" transform="translate(-60.892 -300.288)" fill="#263238"/>
      <path id="Path_647" data-name="Path 647" d="M71.5,359.013a68.613,68.613,0,0,0,6.979-.61,69.715,69.715,0,0,0,6.943-.915c0-.091-3.136.159-6.979.567A56.2,56.2,0,0,0,71.5,359.013Z" transform="translate(-52.821 -298.646)" fill="#263238"/>
      <path id="Path_648" data-name="Path 648" d="M75.25,421.941c0,.1,10.981.177,24.531.177s24.525-.079,24.525-.177-10.981-.171-24.525-.171S75.25,421.849,75.25,421.941Z" transform="translate(-54.283 -323.718)" fill="#455a64"/>
      <path id="Path_649" data-name="Path 649" d="M87.78,445.107c0,.1,7.4.171,16.521.171s16.527-.073,16.527-.171-7.394-.177-16.527-.177S87.78,445.009,87.78,445.107Z" transform="translate(-59.169 -332.749)" fill="#455a64"/>
      <path id="Path_650" data-name="Path 650" d="M88.25,448.421c0,.1,7.272.177,16.234.177s16.24-.079,16.24-.177-7.266-.171-16.24-.171S88.25,448.323,88.25,448.421Z" transform="translate(-59.352 -334.043)" fill="#455a64"/>
      <path id="Path_651" data-name="Path 651" d="M87.3,442.377c0,.1,7.656.171,17.082.171s17.082-.073,17.082-.171-7.65-.177-17.082-.177S87.3,442.279,87.3,442.377Z" transform="translate(-58.982 -331.684)" fill="#455a64"/>
    </g>
  </g>
</svg>
