<svg xmlns="http://www.w3.org/2000/svg" width="177.832" height="273.985" viewBox="0 0 177.832 273.985">
  <g id="Mobile_Marketing-pana_1_" data-name="Mobile Marketing-pana (1)" transform="translate(-95.038 -64.32)">
    <g id="freepik--Device--inject-30" transform="translate(139.163 64.32)">
      <path id="Path_680" data-name="Path 680" d="M273.754,338.305l-93.116-.034a20.259,20.259,0,0,1-20.259-20.259l.041-233.434a20.259,20.259,0,0,1,20.3-20.259l93.109.054a20.259,20.259,0,0,1,20.259,20.259l-.041,233.38a20.259,20.259,0,0,1-20.292,20.292Z" transform="translate(-160.38 -64.32)" fill="#263238"/>
      <path id="Path_681" data-name="Path 681" d="M276.685,76.5H258.628a4.491,4.491,0,0,0-4.383,4.565v3.275a4.477,4.477,0,0,1-4.383,4.578H214.674a4.484,4.484,0,0,1-4.383-4.585v-3.3a4.5,4.5,0,0,0-4.383-4.585H183.752a14.181,14.181,0,0,0-14.215,14.181l-.047,227.85a14.181,14.181,0,0,0,14.181,14.181l92.933.054a14.181,14.181,0,0,0,14.181-14.181l.047-227.856A14.181,14.181,0,0,0,276.685,76.5Z" transform="translate(-163.338 -68.259)" fill="#fff"/>
      <path id="Path_682" data-name="Path 682" d="M325.2,103.894c0,.061-2.35.128-5.24.149s-5.247,0-5.247-.061,2.343-.135,5.24-.155S325.2,103.834,325.2,103.894Z" transform="translate(-210.493 -77.146)" fill="#263238"/>
      <path id="Path_683" data-name="Path 683" d="M325.227,107.863c0,.061-2.343.128-5.24.155s-5.247,0-5.247-.068,2.35-.128,5.247-.155S325.227,107.8,325.227,107.863Z" transform="translate(-210.502 -78.434)" fill="#263238"/>
      <path id="Path_684" data-name="Path 684" d="M325.264,111.833c0,.061-2.35.135-5.247.155s-5.24,0-5.247-.068,2.35-.128,5.247-.155S325.264,111.772,325.264,111.833Z" transform="translate(-210.512 -79.723)" fill="#263238"/>
      <path id="Path_685" data-name="Path 685" d="M184,110.514h1.04l2.823-.068-.081.074c0-.621,0-1.3-.034-2.026V107.32a1.087,1.087,0,0,1,.945-.871h1.351a1.1,1.1,0,0,1,.925,1.087c0,.959,0,1.952.034,2.985l-.128-.128h3.559l-.135.135c0-1.432,0-2.917-.041-4.437v-1.128a1.128,1.128,0,0,0-.5-.837l-1.553-1.54-1.506-1.479-.723-.716c-.25-.243-.446-.493-.736-.554a.966.966,0,0,0-.817.155c-.216.182-.446.439-.675.675l-1.283,1.29c-.8.831-1.641,1.594-2.249,2.316a2.539,2.539,0,0,0-.176,1.351v4.565a3.747,3.747,0,0,1,0,.466,3.842,3.842,0,0,1,0-.425v-1.276c0-.506,0-1.263-.047-2.026V104.97a1.472,1.472,0,0,1,.2-.743c.675-.8,1.445-1.519,2.255-2.377l1.27-1.3c.23-.223.412-.446.675-.675a1.209,1.209,0,0,1,1.033-.209,1.979,1.979,0,0,1,.858.615l.729.716,1.506,1.479,1.56,1.526a3.114,3.114,0,0,1,.4.432,1.168,1.168,0,0,1,.189.6q0,.567,0,1.134c0,1.519,0,3.005.034,4.437v.135H190.75v-3.113a.858.858,0,0,0-.716-.864h-1.3a.871.871,0,0,0-.763.675v3.241h-3.7A1.546,1.546,0,0,1,184,110.514Z" transform="translate(-168.046 -75.783)" fill="#263238"/>
      <path id="Path_686" data-name="Path 686" d="M263.057,379.326a5.643,5.643,0,0,1-.979.068l-2.661.054c-2.242.034-5.348.054-8.779.054s-6.537,0-8.779-.054l-2.661-.054a5.74,5.74,0,0,1-.979-.068,4.973,4.973,0,0,1,.979-.068l2.661-.061c2.242,0,5.348-.047,8.779-.047s6.53,0,8.779.047l2.661.061A4.895,4.895,0,0,1,263.057,379.326Z" transform="translate(-185.655 -166.549)" fill="#455a64"/>
      <path id="Path_687" data-name="Path 687" d="M302.065,388.366c0,.1-14.3.176-31.928.176s-31.928-.074-31.928-.176,14.3-.176,31.928-.176S302.065,388.271,302.065,388.366Z" transform="translate(-185.652 -169.484)" fill="#455a64"/>
      <path id="Path_688" data-name="Path 688" d="M282.111,396.916c0,.1-9.825.176-21.947.176s-21.954-.074-21.954-.176,9.825-.176,21.954-.176S282.111,396.794,282.111,396.916Z" transform="translate(-185.652 -172.26)" fill="#455a64"/>
      <path id="Path_689" data-name="Path 689" d="M332.776,410.737l-1.985-1.992-1.891,1.884v-5.7h3.869Zm-1.985-2.242.061.061,1.749,1.756v-5.2h-3.518v5.1Z" transform="translate(-215.1 -174.92)" fill="#263238"/>
      <path id="Path_690" data-name="Path 690" d="M254.815,410.605l-.675-.311a1.79,1.79,0,1,1,.54-.392Zm-1.627-3.8a1.817,1.817,0,0,0,.034,3.626,1.932,1.932,0,0,0,.871-.277h0l.52.23-.122-.507h0a1.81,1.81,0,0,0-1.351-3.032Z" transform="translate(-189.967 -175.53)" fill="#263238"/>
      <path id="Path_691" data-name="Path 691" d="M261.963,410.409l-.8-1.958L259.66,407.1h3.647ZM260,407.215l1.283,1.175.675,1.668,1.148-2.87Z" transform="translate(-192.617 -175.624)" fill="#263238"/>
      <rect id="Rectangle_662" data-name="Rectangle 662" width="2.377" height="0.135" transform="translate(68.62 232.727) rotate(-33.05)" fill="#263238"/>
      <path id="Path_692" data-name="Path 692" d="M245.754,407.227a2.5,2.5,0,0,1-3.319-.9,1.128,1.128,0,0,0-1.132.934,1.533,1.533,0,0,0,.277,1.1,4.455,4.455,0,0,0,.8.837c.412.358.783.675,1.188,1.053.405-.365.743-.709,1.148-1.074a4.457,4.457,0,0,0,.783-.851A1.5,1.5,0,0,0,245.754,407.227Z" transform="translate(-186.652 -175.373)" fill="#f6bc1f"/>
      <path id="Path_693" data-name="Path 693" d="M288.674,403.521v-2.485c0-1.627,0-4.052-.034-7.131,0-6.206-.034-15.235-.061-26.559l.115.115-107.986.061h0l.176-.176v36.175l-.169-.169,77.273.074,22.555.047h.1l-22.521.047-77.388.081h-.176V367.17h.189l107.986.061h.115v.115c0,11.352-.047,20.407-.061,26.633v8.927A1.3,1.3,0,0,1,288.674,403.521Z" transform="translate(-166.933 -162.658)" fill="#263238"/>
      <rect id="Rectangle_663" data-name="Rectangle 663" width="23.919" height="29.915" transform="matrix(0.006, -1, 1, 0.006, 18.109, 234.654)" fill="#ebebeb"/>
      <path id="Path_694" data-name="Path 694" d="M217.111,376.438h-8.347l-21.609-.047.162-.155c-.034,7.124-.074,15.282-.115,23.912.034.047-.331-.331-.176-.176h8.137l7.766.047,14.005.1-.142.149c.068-7.185.128-13.141.176-17.328,0-2.08.047-3.714.061-4.855v22.325h-.149l-14.006-.054-7.766-.041h-8.137l-.182-.182c.061-8.637.108-16.794.155-23.912v-.162h.162l21.677.2,6.078.081h2.006Z" transform="translate(-168.956 -165.545)" fill="#263238"/>
      <rect id="Rectangle_664" data-name="Rectangle 664" width="20.907" height="27.815" transform="matrix(0.006, -1, 1, 0.006, 19.151, 233.155)" fill="#e0e0e0"/>
      <path id="Path_695" data-name="Path 695" d="M188.72,403.339l9.792-12.939,5.97,8.164,4.106-4.322,7.948,9.258Z" transform="translate(-169.582 -170.202)" fill="#f5f5f5"/>
      <path id="Path_696" data-name="Path 696" d="M213.819,387.061a2.188,2.188,0,1,1-.634-1.553A2.195,2.195,0,0,1,213.819,387.061Z" transform="translate(-176.307 -168.403)" fill="#f5f5f5"/>
      <path id="Path_697" data-name="Path 697" d="M246.965,146.8a.972.972,0,0,1-.324,0l-.912.034-3.376.061c-2.843,0-6.753.047-11.115.047s-8.272,0-11.115-.047l-3.376-.061-.918-.034a.905.905,0,0,1-.317,0,1.176,1.176,0,0,1,.317-.034h.918l3.376-.054c2.843-.034,6.753-.054,11.115-.054s8.272,0,11.115.054l3.376.054h.912a1.263,1.263,0,0,1,.324.034Z" transform="translate(-178.281 -91.057)" fill="#263238"/>
      <path id="Path_698" data-name="Path 698" d="M324.76,338.5l-2.944-2.958-2.816,2.8V329.88h5.753Zm-2.944-3.322.088.088,2.6,2.607V330.15h-5.24v7.577Z" transform="translate(-211.886 -150.55)" fill="#263238"/>
      <path id="Path_699" data-name="Path 699" d="M213.421,337.742l-1.351-.615a3.485,3.485,0,1,1,1.06-.763ZM210.2,330.28a3.566,3.566,0,0,0,.061,7.131,3.707,3.707,0,0,0,1.715-.54l.061-.034,1.013.452-.23-1,.047-.047a3.559,3.559,0,0,0-2.667-5.963Z" transform="translate(-175.409 -150.68)" fill="#263238"/>
      <path id="Path_700" data-name="Path 700" d="M227.608,337.281l-1.58-3.856-2.958-2.7,7.185-.054Zm-3.869-6.3,2.526,2.316,1.351,3.282,2.255-5.645Z" transform="translate(-180.736 -150.807)" fill="#263238"/>
      <rect id="Rectangle_665" data-name="Rectangle 665" width="4.673" height="0.263" transform="translate(45.458 182.399) rotate(-33.05)" fill="#263238"/>
      <path id="Path_701" data-name="Path 701" d="M195.7,331.138a2.222,2.222,0,0,0-4.383.142,2.222,2.222,0,0,0-4.383-.074,3.005,3.005,0,0,0,.547,2.161,9.122,9.122,0,0,0,1.573,1.654c.8.675,1.54,1.351,2.343,2.073.783-.716,1.459-1.391,2.249-2.114a9.1,9.1,0,0,0,1.546-1.675A3.012,3.012,0,0,0,195.7,331.138Z" transform="translate(-168.995 -150.377)" fill="#f6bc1f"/>
      <circle id="Ellipse_47" data-name="Ellipse 47" cx="4.876" cy="4.876" r="4.876" transform="translate(21.177 50.87)" fill="#ebebeb"/>
      <path id="Path_702" data-name="Path 702" d="M280.919,301.166c0,.1-20.434.182-45.636.182s-45.643-.081-45.643-.182,20.434-.176,45.643-.176S280.919,301.071,280.919,301.166Z" transform="translate(-169.881 -141.169)" fill="#455a64"/>
      <path id="Path_703" data-name="Path 703" d="M280.919,289.916c0,.095-20.434.176-45.636.176s-45.643-.081-45.643-.176,20.434-.176,45.643-.176S280.919,289.821,280.919,289.916Z" transform="translate(-169.881 -137.516)" fill="#455a64"/>
      <path id="Path_704" data-name="Path 704" d="M239.321,312.576c0,.095-11.122.176-24.837.176s-24.844-.081-24.844-.176,11.122-.176,24.844-.176S239.321,312.481,239.321,312.576Z" transform="translate(-169.881 -144.874)" fill="#455a64"/>
      <path id="Path_705" data-name="Path 705" d="M252.27,434.339a1.952,1.952,0,1,1-.555-1.39,1.945,1.945,0,0,1,.555,1.39Z" transform="translate(-188.955 -183.826)" fill="#263238"/>
      <path id="Path_706" data-name="Path 706" d="M261.136,434.379a1.945,1.945,0,1,1-.553-1.392,1.938,1.938,0,0,1,.553,1.392Z" transform="translate(-191.838 -183.839)" fill="#263238"/>
      <path id="Path_707" data-name="Path 707" d="M270.066,434.419a1.952,1.952,0,1,1-.555-1.39A1.938,1.938,0,0,1,270.066,434.419Z" transform="translate(-194.738 -183.852)" fill="#263238"/>
      <rect id="Rectangle_666" data-name="Rectangle 666" width="107.999" height="66.043" transform="translate(14.39 65.388)" fill="#e0e0e0"/>
      <path id="Path_708" data-name="Path 708" d="M196.46,239.062,227.4,197.64l19.192,25.9,13-13.857L285.1,239.035Z" transform="translate(-172.096 -107.61)" fill="#f5f5f5"/>
      <path id="Path_709" data-name="Path 709" d="M276.025,186.756a6.982,6.982,0,1,1-6.982-6.976A6.982,6.982,0,0,1,276.025,186.756Z" transform="translate(-193.397 -101.811)" fill="#f5f5f5"/>
      <path id="Path_710" data-name="Path 710" d="M289.194,277.92c0-1.411-.068-61.073-.162-149.4l.162.162H181.209l.176-.176v149.4l-.149-.142,108,.142-108,.149h-.142v-.149c0-41.821,0-93.528-.034-149.4v-.176H289.4v.155c-.034,44.211-.061,81.575-.081,107.9,0,13.141-.034,23.52-.041,30.624v10.183A2.662,2.662,0,0,1,289.194,277.92Z" transform="translate(-167.095 -85.105)" fill="#263238"/>
    </g>
    <g id="freepik--Megaphone--inject-30" transform="translate(95.038 103.988)">
      <path id="Path_711" data-name="Path 711" d="M244.975,359.666l2.391-8.029c.419-1.742.972-3.8,1.715-6.138a16.644,16.644,0,0,1,3.957-5.916c2.438-2.478,3.6-2.492,5.233-3.809.149-.095.317-.236.459-.311a2.572,2.572,0,0,0,.8-.675c1.411-1.526.054-3.9-2.816-3.667-2.154.169-5.679.783-11.406,6.692-.074.095-.149.169-.216.257-3.005,3.91-5.828-7.246-6.341-11.4a4.342,4.342,0,0,0-5.882-3.376l-13.952,6.523a6.53,6.53,0,0,0-4.052.135,4.16,4.16,0,0,0-2.661,4.923l5.666,22.561L201.25,412.744h35.824Z" transform="translate(-129.526 -187.982)" fill="#ffbe9d"/>
      <path id="Path_712" data-name="Path 712" d="M276.573,298.339l-11.075,21.7-5.537-1.54-27.822,22.642a5.632,5.632,0,0,1-7.827-.675l-10.6-12.31s21.373-9.2,25.323-16.822-.615-9.353-.615-9.353l10.055-11.426Z" transform="translate(-133.572 -177.451)" fill="#f6bc1f"/>
      <path id="Path_713" data-name="Path 713" d="M223.675,199.625s-16.207-3.586-39.025-25.519-33.528-51.086-36.29-50.924-14.985-5.517-38.174,44.92-14.053,62.127-9.454,62.059,35.939-8.826,55.509-6.6,44.724,12.425,44.724,12.425Z" transform="translate(-95.038 -123.063)" fill="#f6bc1f"/>
      <path id="Path_714" data-name="Path 714" d="M307.361,259.369l-5.531,10.514-2.478,4.727a13.722,13.722,0,0,1-17.888,6.078L246.72,268.58l20.259-46.19,34.71,18.5a13.722,13.722,0,0,1,5.672,18.483Z" transform="translate(-144.291 -155.315)" fill="#f6bc1f"/>
      <g id="Group_179" data-name="Group 179" transform="translate(102.429 67.075)" opacity="0.4">
        <path id="Path_715" data-name="Path 715" d="M307.361,259.369l-5.531,10.514-2.478,4.727a13.722,13.722,0,0,1-17.888,6.078L246.72,268.58l20.259-46.19,34.71,18.5a13.722,13.722,0,0,1,5.672,18.483Z" transform="translate(-246.72 -222.39)"/>
      </g>
      <path id="Path_716" data-name="Path 716" d="M113.485,169.57c-12.338,27.322-17.476,51.673-11.48,54.381s20.873-17.24,33.211-44.569S152.693,127.716,146.7,125,125.823,142.248,113.485,169.57Z" transform="translate(-96.487 -123.612)" fill="#f6bc1f"/>
      <g id="Group_180" data-name="Group 180" transform="translate(3.013 1.142)" opacity="0.5">
        <path id="Path_717" data-name="Path 717" d="M113.485,169.57c-12.338,27.322-17.476,51.673-11.48,54.381s20.873-17.24,33.211-44.569S152.693,127.716,146.7,125,125.823,142.248,113.485,169.57Z" transform="translate(-99.501 -124.754)"/>
      </g>
      <path id="Path_718" data-name="Path 718" d="M336.41,292.9l-9.42-2.958,5.828-11.075,7.064,4.389Z" transform="translate(-170.355 -173.655)" fill="#f6bc1f"/>
      <g id="Group_181" data-name="Group 181" transform="translate(156.635 105.215)" opacity="0.6">
        <path id="Path_719" data-name="Path 719" d="M332.818,278.87l-5.828,11.075,1.938.608,4.734-11.163Z" transform="translate(-326.99 -278.87)"/>
      </g>
      <path id="Path_720" data-name="Path 720" d="M316.144,278.192c-.135.3-4.835-1.519-10.494-4.052s-10.129-4.882-10-5.186,4.835,1.526,10.5,4.085S316.286,277.888,316.144,278.192Z" transform="translate(-160.178 -170.425)" fill="#f6bc1f"/>
      <path id="Path_721" data-name="Path 721" d="M321.421,268.49c-.149.3-4.4-1.492-9.5-4s-9.11-4.788-8.961-5.092,4.4,1.492,9.495,4S321.569,268.186,321.421,268.49Z" transform="translate(-162.551 -167.32)" fill="#f6bc1f"/>
      <path id="Path_722" data-name="Path 722" d="M311.614,288.879c-.047.162-1.168-.095-2.951-.675-.891-.277-1.952-.628-3.12-1.026s-2.364-1.033-3.653-1.621c-5.152-2.391-9.089-4.727-8.961-5.011s4.362,1.546,9.454,3.917c1.283.581,2.472,1.216,3.593,1.681s2.127.878,2.971,1.256C310.635,288.177,311.661,288.717,311.614,288.879Z" transform="translate(-159.294 -174.19)" fill="#f6bc1f"/>
      <path id="Path_723" data-name="Path 723" d="M145.914,181.167s-14.087-8.738-21.792,10.3,7.111,22.163,7.111,22.163a126.706,126.706,0,0,0,14.681-32.461Z" transform="translate(-103.761 -141.28)" fill="#f6bc1f"/>
      <g id="Group_182" data-name="Group 182" transform="translate(16.742 17.198)" opacity="0.5">
        <path id="Path_724" data-name="Path 724" d="M160.226,148.53a20.6,20.6,0,0,1-.547,3.64c-.432,2.33-1.08,5.7-1.985,9.846l-1.958,6.665q-.533,1.789-1.1,3.707l-.574,1.938c-.209.675-.486,1.29-.729,1.945l-3.181,8.212c-.277.716-.56,1.432-.837,2.154s-.675,1.411-.993,2.127l-2.093,4.322-2.1,4.315c-.358.675-.675,1.432-1.06,2.093s-.79,1.351-1.175,1.992L137.4,209.07c-.365.594-.675,1.209-1.08,1.776l-1.168,1.654-2.242,3.16-4.052,5.652c-2.7,3.262-4.957,5.835-6.51,7.624a22.127,22.127,0,0,1-2.519,2.7,21.82,21.82,0,0,1,2.161-2.985c1.5-1.911,3.613-4.585,6.206-7.874l3.883-5.693,2.174-3.167c.378-.54.756-1.094,1.141-1.654s.675-1.175,1.047-1.776l4.437-7.577,1.155-1.985c.4-.675.675-1.351,1.047-2.08l2.08-4.288c.675-1.452,1.4-2.877,2.087-4.288.324-.675.716-1.391.986-2.107l.844-2.134,3.228-8.1c.25-.675.533-1.276.75-1.925s.4-1.283.594-1.918l1.148-3.667,2.073-6.584,2.343-9.724a21.794,21.794,0,0,1,1.013-3.579Z" transform="translate(-119.83 -148.53)"/>
      </g>
      <g id="Group_183" data-name="Group 183" transform="translate(83.501 129.865)" opacity="0.4">
        <path id="Path_725" data-name="Path 725" d="M218.69,334.7a27.24,27.24,0,0,0,4.5,6.571,9.275,9.275,0,0,0,7.192,2.883c2.7-.27,5.166-2.472,5.193-5.132a3.32,3.32,0,0,0,4.275-.756,7.457,7.457,0,0,0,1.519-4.437,4.186,4.186,0,0,0,5.288-1.425,6.847,6.847,0,0,0,.675-5.78,20.372,20.372,0,0,0-2.775-5.315,7.34,7.34,0,0,0,3.93-.4c1.189-.6,2.026-2.181,1.3-3.316a3.261,3.261,0,0,0-1.938-1.236,12.241,12.241,0,0,0-5.72-.925c-.5,0,.871,5.726-12.749,13.546C221.3,333.611,218.69,334.7,218.69,334.7Z" transform="translate(-218.69 -315.373)"/>
      </g>
      <path id="Path_726" data-name="Path 726" d="M257.46,356.044c0,.061-.912-.115-2.384-.074a13.506,13.506,0,0,0-10.008,4.8c-.952,1.121-1.351,1.938-1.438,1.9a2.08,2.08,0,0,1,.263-.594,11.823,11.823,0,0,1,.979-1.472,12.831,12.831,0,0,1,10.2-4.889,10.29,10.29,0,0,1,1.756.162A1.845,1.845,0,0,1,257.46,356.044Z" transform="translate(-143.288 -198.609)" fill="#eb996e"/>
      <path id="Path_727" data-name="Path 727" d="M220,332.823c2.195,2.107,3.694,4.437,6,6.557,1.047.966,2.7,2.789,4.052,3.032s2.3.061,2.85-1.249c.452-1.06-.358-2.512-.912-3.376-1.465-2.3-2.87-4.1-3.964-5.889-.52-.837.149-1.013.392-.621,1.053,1.094,2.634,2.026,3.579,3.235,1.3,1.627,1.526,3.8,4.916,3.106a2.958,2.958,0,0,0,1.256-.52,3.394,3.394,0,0,0,.8-4.052,11.021,11.021,0,0,0-1.891-2.85c1.445,1.627,3.019,3.376,5.315,3.525a3.154,3.154,0,0,0,3.208-1.735c.675-1.54-.29-3.032-1.27-4.234a44.354,44.354,0,0,0-5.76-5.889,4.41,4.41,0,0,0-2.8-1.033c-1.189,0-2.7.216-3.376,1.243a4.626,4.626,0,0,0-.925,3.532s-2.971-1.506-5.362.068a7.6,7.6,0,0,0-2.985,4.295Z" transform="translate(-135.615 -187.28)" fill="#ffbe9d"/>
      <path id="Path_728" data-name="Path 728" d="M243.035,316.766a3.566,3.566,0,0,1-.419-4.052c.506-.993,1.141-1.958,1.79-2.174,2.829-.952,15.2,1.189,15.086,3.93s-1.02,4.052-7.725,3.086c-1.182-.169-3.032-.4-3.032-.4l-1.621,2.431Z" transform="translate(-142.814 -183.864)" fill="#ffbe9d"/>
      <path id="Path_729" data-name="Path 729" d="M243.454,333.919a16.133,16.133,0,0,0-6.814-6.179,3.93,3.93,0,0,1,1.31.459,11.757,11.757,0,0,1,4.916,4.457,3.775,3.775,0,0,1,.588,1.263Z" transform="translate(-141.018 -189.524)" fill="#eb996e"/>
      <path id="Path_730" data-name="Path 730" d="M247.852,323.239c-.061.054-.878-.608-1.992-1.29a14.5,14.5,0,0,0-1.445-.8c-.385-.176-.642-.223-.635-.277s.29-.081.716.047a6.549,6.549,0,0,1,1.553.736A4.692,4.692,0,0,1,247.852,323.239Z" transform="translate(-143.336 -187.278)" fill="#eb996e"/>
      <path id="Path_731" data-name="Path 731" d="M250.793,319.824a5.287,5.287,0,0,1-2.384-.27,4.4,4.4,0,0,1-1.526-.824c-.338-.29-.48-.527-.446-.56a10.131,10.131,0,0,0,2.073,1.026A17.765,17.765,0,0,1,250.793,319.824Z" transform="translate(-144.198 -186.416)" fill="#eb996e"/>
      <path id="Path_732" data-name="Path 732" d="M230.365,338.962a8.78,8.78,0,0,1-1.128-1.465,13.12,13.12,0,0,0-2.883-3.282,5.8,5.8,0,0,0-4.092-1.081,6.945,6.945,0,0,0-1.722.547,1.778,1.778,0,0,1,.4-.311,3.768,3.768,0,0,1,1.283-.486,5.767,5.767,0,0,1,4.335,1.047,11.7,11.7,0,0,1,2.89,3.424A11,11,0,0,1,230.365,338.962Z" transform="translate(-135.79 -191.17)" fill="#eb996e"/>
      <path id="Path_733" data-name="Path 733" d="M244.22,382.42a37.806,37.806,0,0,1-5.051.723,36.616,36.616,0,0,1-5.1.378,38.053,38.053,0,0,1,5.058-.723,37.823,37.823,0,0,1,5.092-.378Z" transform="translate(-140.183 -207.279)" fill="#eb996e"/>
    </g>
  </g>
</svg>
