<svg xmlns="http://www.w3.org/2000/svg" width="299.108" height="227.765" viewBox="0 0 299.108 227.765">
  <g id="Group_178" data-name="Group 178" transform="translate(0.009 0.123)">
    <path id="Path_652" data-name="Path 652" d="M686.88,202.92a1.817,1.817,0,0,0,1.317-3.149l-.125-.495.049-.119a4.879,4.879,0,0,1,9,.033c1.472,3.545,3.346,7.1,3.807,10.845a14.435,14.435,0,0,1-.253,4.964,57.868,57.868,0,0,0,5.264-24.035,55.857,55.857,0,0,0-.346-6.231q-.287-2.544-.8-5.052a58.539,58.539,0,0,0-11.609-24.811,15.579,15.579,0,0,1-6.479-6.722,11.885,11.885,0,0,1-1.081-3.247c.315.041,1.189-4.763.951-5.057.44-.667,1.226-1,1.706-1.65,2.388-3.237,5.677-2.672,7.395,1.727,3.669,1.852,3.7,4.922,1.453,7.875-1.432,1.879-1.629,4.421-2.885,6.433.129.165.264.326.393.491a58.921,58.921,0,0,1,6.15,9.742,24.493,24.493,0,0,1,1.462-11.376c1.4-3.376,4.023-6.22,6.333-9.139a5.027,5.027,0,0,1,8.954,2.469q.007.065.014.129-.515.29-1.008.616a2.464,2.464,0,0,0,.994,4.485l.05.008a24.514,24.514,0,0,1-.646,3.666c2.964,11.461-3.435,15.636-12.571,15.823-.2.1-.4.207-.6.305a60.137,60.137,0,0,1,3.237,15.234,57.034,57.034,0,0,1-.041,9.21l.016-.109a15.072,15.072,0,0,1,5.145-8.7c3.96-3.253,9.554-4.45,13.825-7.065a2.829,2.829,0,0,1,4.332,2.752l-.017.114a16.554,16.554,0,0,0-1.856.895q-.515.29-1.008.616a2.464,2.464,0,0,0,.994,4.485l.05.008.1.016a24.542,24.542,0,0,1-4.514,7.069c-1.853,10.005-9.812,10.955-18.326,8.041h-.005a60.121,60.121,0,0,1-4.039,11.79H687.241c-.052-.16-.1-.326-.145-.486a16.392,16.392,0,0,0,3.992-.238c-1.07-1.313-2.141-2.637-3.211-3.951a.892.892,0,0,1-.067-.078c-.543-.672-1.091-1.339-1.634-2.012h0a24.011,24.011,0,0,1,.7-6.117Z" transform="translate(-505.518 -134.377)" fill="#f2f2f2"/>
    <path id="Path_653" data-name="Path 653" d="M803.571,195.652c-2.683-9.78,18.954-18.167,24.635-10.291.79-1.12,3.71-1.8,5.049-1.456a10.449,10.449,0,0,1,3.566,2.034,14.083,14.083,0,0,1,4.005,4.033,4.793,4.793,0,0,1-.179,5.372c-1,1.147-3.937,1.889-5.434,2.191-1.044.213-1.924.385-2.679.508a5.122,5.122,0,0,1-.893-3.387,4.157,4.157,0,0,0-1.814,3.05c-.021.254,8.443,31.4,8.443,31.4a18.459,18.459,0,0,1-3.194,1.436,40.171,40.171,0,0,1-4.981-10.854,34.784,34.784,0,0,0,.1,7.729,42.556,42.556,0,0,0,.728,4.28c-10.057,2.171-25.185,1.456-31.766-7.777q0-.057,0-.115a1.571,1.571,0,0,0-3.035-.548c-.16.407-.307.76-.438,1.04C793.76,217.436,796.24,209.5,803.571,195.652Z" transform="translate(-575.888 -164.032)" fill="#2f2e41"/>
    <path id="Path_654" data-name="Path 654" d="M770.946,679.207v.32a1.361,1.361,0,0,1,0-.32Z" transform="translate(-560.378 -483.616)" fill="#2f2e41"/>
    <path id="Path_655" data-name="Path 655" d="M798.558,523.86a5.481,5.481,0,0,1,.779-.151Q798.884,523.783,798.558,523.86Z" transform="translate(-578.14 -383.619)" fill="#2f2e41"/>
    <path id="Path_656" data-name="Path 656" d="M797.919,524.19c.069-.019.146-.039.228-.058C798.071,524.152,798,524.167,797.919,524.19Z" transform="translate(-577.729 -383.891)" fill="#2f2e41"/>
    <path id="Path_657" data-name="Path 657" d="M851.715,607.147H814.85a2.932,2.932,0,0,1-.789-3.61c1.007-2.31-.966-4.42-.966-4.42a6.27,6.27,0,0,1-1.263-5.779c.977-3.411-2.851-13.04-2.851-13.04s-2.063,12.433-4.592,26.85H769.327a6.517,6.517,0,0,1,0-6.6c2.043-3.464,0-4.129,0-4.129s-2.043-3.877,0-6.692,0-14.309,0-14.309c.077.508.659-.416,1.555-2.353,1.364-2.947,3.45-8.248,5.556-14.4,1.506-4.392,3.024-9.224,4.293-13.948h0q.5-1.862.945-3.69c.582-2.39,1.081-4.712,1.46-6.893.822-4.7,1.093-8.731.462-11.355-.524-2.184-1.669-3.388-3.646-3.181,1.059-.176,2.612-.342,4.524-.5.345-.028.7-.055,1.072-.086,14.266-1.078,44.873-1.7,44.873-1.7L839.8,534.1l11.873,21.266S851.348,583.9,851.715,607.147Z" transform="translate(-558.759 -379.507)" fill="#2f2e41"/>
    <path id="Path_658" data-name="Path 658" d="M814.681,305.765l-21.6-4.582-4.289,8.632-14.442,8.361s9.309,38.063,9.256,43.417c-.135,13.591-21.882,44.059-5.456,41.716s19.763-12.162,25.036-10.609c4.756,1.4,10.563,7.628,14.45,3.174s5.257.689,7.715.867c1.168.084.465-5.625,3.4.177s18.526-2.008,13.243-7.291c-8.8-8.8-10.586-73.656-10.586-73.656l-9.794-3.014Z" transform="translate(-561.073 -240.519)" fill="#e6e6e6"/>
    <path id="Path_659" data-name="Path 659" d="M761.534,646.5a5.184,5.184,0,0,0-.534-7.212,4.967,4.967,0,0,0-.666-.482l3.611-17.724-8.349-5L753.274,640.9a5.17,5.17,0,0,0,1.192,6.2,4.948,4.948,0,0,0,6.98-.495Z" transform="translate(-548.664 -443.023)" fill="#a0616a"/>
    <path id="Path_660" data-name="Path 660" d="M786.829,373.43c-.052-.57-.779-.828-1.786-1.186a11.046,11.046,0,0,1-2.855-1.352c-2.23-1.611-1.352-3.3-.139-5.624.237-.453.484-.924.715-1.414.687-1.451-.406-7.435-3.255-17.789-.878-3.188-.875-5.439-1.481-6.933s-1.814-2.23-5.113-2.384a15.081,15.081,0,0,0-10.856,3.859c-.08.071-.163.148-.243.222q-.226.213-.443.434a15.07,15.07,0,0,0-4.38,10.361l-.015.662-.681,31.636-1.913,27.762-2.636,38.242,1.953.1,7.792.388.945.046,2.242-9.406,2.7-11.318.992-4.158,3.077-12.9,1.435-6.027.878-3.68.357-1.5,1.743-7.305c.04-.154,4.05-15.975,8.673-18.621C786.257,374.554,786.879,373.981,786.829,373.43Z" transform="translate(-548.038 -263.378)" fill="#e6e6e6"/>
    <path id="Path_661" data-name="Path 661" d="M986.117,645.138a5.185,5.185,0,0,1-.244-7.227,4.975,4.975,0,0,1,.61-.551l-5.494-17.234,7.764-5.865,4.974,24.421a5.17,5.17,0,0,1-.519,6.291,4.948,4.948,0,0,1-6.993.258Z" transform="translate(-695.457 -441.851)" fill="#a0616a"/>
    <path id="Path_662" data-name="Path 662" d="M934.645,432.306s-6.057-21.3-4.21-23.611-3.607-2.757-1.257-7.052-.894-5.014-.894-5.014l-1.76-9.876L923.377,362.5l-.1-.721-.915-7.057a15.112,15.112,0,0,0-5.959-10.214c-.083-.064-.168-.125-.253-.186q-.581-.418-1.188-.775a15.085,15.085,0,0,0-10.032-1.906c-6.527,1.016-4.5,3.45-5.554,9.971-1.72,10.6-2.167,16.667-1.328,18.038.283.461.579.9.863,1.327,1.457,2.188,2.511,3.766.466,5.61a11.153,11.153,0,0,1-2.693,1.648c-.961.465-1.657.8-1.648,1.372.011.554.69,1.055,2.51,1.849,2.2.965,4.573,4.613,6.512,8.339a92.058,92.058,0,0,1,4.111,9.244l16.67,46.885,2.719,7.646.938-.148,7.7-1.221,1.932-.306Z" transform="translate(-640.186 -266.413)" fill="#e6e6e6"/>
    <circle id="Ellipse_44" data-name="Ellipse 44" cx="17.622" cy="17.622" r="17.622" transform="translate(226.874 25.097)" fill="#a0616a"/>
    <path id="Path_663" data-name="Path 663" d="M776.625,199.5c-2.683-9.78,18.954-18.167,24.635-10.291.79-1.12,3.71-1.8,5.049-1.456a10.447,10.447,0,0,1,3.566,2.034,14.083,14.083,0,0,1,4.005,4.033,4.793,4.793,0,0,1-.179,5.372c-1,1.147-3.937,1.889-5.434,2.191-1.044.213-1.923.385-2.679.508a5.123,5.123,0,0,1-.893-3.387,4.158,4.158,0,0,0-1.814,3.05c-.021.254,8.443,31.4,8.443,31.4a18.46,18.46,0,0,1-3.194,1.436,40.171,40.171,0,0,1-4.981-10.854,34.777,34.777,0,0,0,.1,7.729,42.556,42.556,0,0,0,.728,4.28c-10.057,2.171-25.185,1.456-31.766-7.777q0-.057,0-.115a1.571,1.571,0,0,0-3.035-.548c-.16.407-.307.76-.438,1.04C766.815,221.286,769.294,213.351,776.625,199.5Z" transform="translate(-558.56 -166.508)" fill="#2f2e41"/>
    <path id="Path_664" data-name="Path 664" d="M810.435,197.849" transform="translate(-585.778 -174.067)" fill="#2f2e41"/>
    <path id="Path_665" data-name="Path 665" d="M468.855,273.92a1.817,1.817,0,0,1-1.317-3.149l.124-.495-.049-.119a4.879,4.879,0,0,0-9,.033c-1.472,3.545-3.346,7.1-3.808,10.845a14.433,14.433,0,0,0,.253,4.964,57.869,57.869,0,0,1-5.264-24.035,55.859,55.859,0,0,1,.346-6.231q.287-2.544.8-5.052a58.54,58.54,0,0,1,11.609-24.811,15.579,15.579,0,0,0,6.479-6.722,11.883,11.883,0,0,0,1.081-3.247c-.315.041-1.189-4.763-.951-5.057-.44-.667-1.226-1-1.706-1.65-2.388-3.237-5.677-2.672-7.395,1.727-3.669,1.852-3.7,4.922-1.453,7.875,1.432,1.879,1.629,4.421,2.885,6.433-.129.165-.264.326-.393.491a58.917,58.917,0,0,0-6.149,9.742,24.493,24.493,0,0,0-1.462-11.376c-1.4-3.376-4.023-6.22-6.333-9.139a5.027,5.027,0,0,0-8.954,2.469q-.007.065-.014.129.515.29,1.008.616a2.464,2.464,0,0,1-.994,4.485l-.05.008a24.523,24.523,0,0,0,.646,3.666c-2.964,11.461,3.435,15.636,12.571,15.823.2.1.4.207.6.305a60.138,60.138,0,0,0-3.237,15.234,57.035,57.035,0,0,0,.041,9.21l-.016-.109a15.072,15.072,0,0,0-5.145-8.7c-3.96-3.253-9.554-4.45-13.825-7.065a2.829,2.829,0,0,0-4.332,2.752l.017.114a16.558,16.558,0,0,1,1.856.895q.515.29,1.008.616a2.464,2.464,0,0,1-.994,4.485l-.05.008-.1.016a24.542,24.542,0,0,0,4.514,7.069c1.853,10.005,9.812,10.955,18.326,8.041h.005a60.117,60.117,0,0,0,4.039,11.79h14.427c.052-.16.1-.326.145-.486a16.393,16.393,0,0,1-3.992-.238c1.07-1.313,2.141-2.637,3.211-3.951a.893.893,0,0,0,.067-.078c.543-.672,1.091-1.339,1.634-2.012h0a24.01,24.01,0,0,0-.7-6.117Z" transform="translate(-338.182 -180.035)" fill="#f2f2f2"/>
    <path id="Path_666" data-name="Path 666" d="M337.765,190.979c-.327.763-10.424.681-10.886,1.361-3.565,5.246,9.287,27.565,5.721,32.818l-.5.592a23.468,23.468,0,0,0,3.341-1.885c.1-2.15.191-4.307.293-6.457a17.746,17.746,0,0,1,2.558,4.5,29.129,29.129,0,0,1,5.069-3.8,22.314,22.314,0,0,1,4.931-4.059Z" transform="translate(-274.41 -169.65)" fill="#2f2e41"/>
    <path id="Path_667" data-name="Path 667" d="M251.686,308.988a8.362,8.362,0,0,0-12.668,4.946l-15.343,39.977L197.3,338.939a8.165,8.165,0,1,0-5.094,8.121c5.554,5.928,29.632,30.23,39.6,20.735,8.379-7.982,20.47-38.915,23.381-49.6A8.363,8.363,0,0,0,251.686,308.988Z" transform="translate(-181 -244.666)" fill="#ffb6b6"/>
    <path id="Path_668" data-name="Path 668" d="M117.341,349.883l4.842,21.884,35.4,3.2,3.254-19.055Z" transform="translate(-75.465 -225.08)" fill="#ffb6b6"/>
    <path id="Path_669" data-name="Path 669" d="M310.015,563.5c-.016.314-.036.624-.058.938-.34,4.534-.728,9.764-1.148,15.5-.663,9.095-1.4,19.451-2.151,30.285H232.4l14.4-43.289s5.815-3.2,2.855-8.58,2.865-1.092,2.919-8.774,5.274-15.853,5.274-15.853l.857-11.63.488.01,38.646.644.705.013,1.187,9.984A44.141,44.141,0,0,1,310.015,563.5Z" transform="translate(-214.058 -382.582)" fill="#2f2e41"/>
    <path id="Path_670" data-name="Path 670" d="M317.1,280.08l17.622-.908,8.185,12.933s15.4,2.575,14.333,20.722S338.5,346.9,338.5,346.9l.755-2.59-1.312,3.748.168,2.1,1.79,2.229.184,2.305-1.586,3.647h0a2.084,2.084,0,0,1-1.976,3.177l-25.463-2.552c-.58-1.595-1.045-3.5-3.369-.326l-2.4-.232-9.971-.966-.587-2.138a8.282,8.282,0,0,1,1.347-7.144h0a10.925,10.925,0,0,1,.632-8.2l.048-.1,1.059-.883s-11.585-17.4,1.714-30.513l5.338-9.074,5.972-7.286Z" transform="translate(-253.123 -226.365)" fill="#f6bc1f"/>
    <circle id="Ellipse_45" data-name="Ellipse 45" cx="16.711" cy="16.711" r="16.711" transform="translate(51.648 12.659)" fill="#ffb6b6"/>
    <path id="Path_671" data-name="Path 671" d="M343.113,196.231a8.048,8.048,0,0,1-2.694-4.423,17.29,17.29,0,0,0,.238,6.314c-.9.68-1.783,1.327-2.613,1.912a17.747,17.747,0,0,0-2.558-4.5c-.1,2.15-.2,4.307-.293,6.457a23.471,23.471,0,0,1-3.341,1.885l.5-.592c3.565-5.253-5.661-14.921-2.1-20.167,1-1.47-3.518-13.084-6.96-13.608-3.062-.463-2.932.422-5.9,1.068a14.842,14.842,0,0,0-1.422-3.681,12.16,12.16,0,0,1-.116,3.878c-1.055.041-1.884-.631-3.007-.8-7.164-1.1-6.436-8.845-4.443-11.3s8.641-3.184,11.7-3.98c.279-.272.912-.1,1.191-.361,5.868-5.37,13.715-6.259,20.777-3.879,7.531,2.538,12.227,7.451,14.637,15.024l.691,6.061c.62,1.949-.16,11.016-.691,12.99C354.649,192.2,350.251,188.372,343.113,196.231Z" transform="translate(-262.062 -142.787)" fill="#2f2e41"/>
    <path id="Path_672" data-name="Path 672" d="M441.72,395.788l-.658-51.238a8.271,8.271,0,0,0-8.27-8.14h0a8.271,8.271,0,0,0-8.259,8.71l2.315,53.2.044,32.387a7.218,7.218,0,1,0,8.861,2.7Z" transform="translate(-336.303 -263.172)" fill="#ffb6b6"/>
    <path id="Path_673" data-name="Path 673" d="M579.276,635.225s-1.017,18.3-1.485,28.736H542.763c-.721-9.5-.964-16.476-.964-16.476l-1.917,16.476H504.475l-2.2-30.514,10.608-26.295s57.487-3.987,62.819,1.071S579.276,635.225,579.276,635.225Z" transform="translate(-387.612 -436.32)" fill="#2f2e41"/>
    <circle id="Ellipse_46" data-name="Ellipse 46" cx="19.134" cy="19.134" r="19.134" transform="translate(141.555 6.699)" fill="#ffb6b6"/>
    <path id="Path_674" data-name="Path 674" d="M614.6,150.614c-1.965.9-3.239,7.386-4.783,5.878s-1.442-3.472-3.524-4.029a7.058,7.058,0,0,0-5.026.879c-.274.144-.539.3-.8.455-.171-.114-.341-.222-.523-.321a6.08,6.08,0,0,0-4.475-.5,5.965,5.965,0,0,1,2.948,2.173c-.513.344-1.033.689-1.565.995-4.444,2.564-10.767-3.012-15.445-5.107,2.93,5.5,1.487,7.775-1.057,13.461l-.088.324c.145-1.425-4.265-2.487-4.01-.481a24.159,24.159,0,0,0,2.1,5.848c-4.918-5.686-8.279-12.645-7.569-19.824.154-1.508.108-3.1.886-4.408a3.443,3.443,0,0,1,3.838-1.719,12.686,12.686,0,0,1,19.1-11.609,48.485,48.485,0,0,1,5.052,3.916,10.549,10.549,0,0,0,5.757,2.569c1.354.065,2.827-.265,3.99.436,1.347.814,1.578,2.517,1.78,4.156a6.073,6.073,0,0,0-3.272,1.362,5.942,5.942,0,0,1,3.577.767.37.37,0,0,1,.059.033C612.263,148.573,612.19,149.174,614.6,150.614Z" transform="translate(-431.605 -130.998)" fill="#2f2e41"/>
    <path id="Path_675" data-name="Path 675" d="M508.668,395.953c16.294-19.072,10.79-43.331,4.323-67.819l1.231-36.176a11.066,11.066,0,0,1,5.007-8.888L535.863,272.2l6.474-9.361,17.846,1.785,9.9,10.466,10.954,8.363a18.147,18.147,0,0,1,6.707,18.343L577.259,349.2s4.384,24.576,1.709,27.291-9.569,0-4.1,3.048c6.56,3.657,12.525,2.982,9.205,6.3s.882,7.935.882,7.935Z" transform="translate(-391.72 -215.863)" fill="#f6bc1f"/>
    <path id="Path_676" data-name="Path 676" d="M505.868,672.993l2.716-19.353-10.839-3.094L495.6,671.109a6.542,6.542,0,1,0,10.267,1.884Z" transform="translate(-381.953 -465.185)" fill="#ffb6b6"/>
    <path id="Path_677" data-name="Path 677" d="M522.336,298.842s-30.852,10.041-31.588,17.389-.492,11.845-3.748,41.245l.172,79.2s20.685,4.429,18.563-.306-1.381-6.963-1.381-6.963,4.435-1.75,3.325-7.31,4.457-33.111,4.457-33.111l3.514-49.413Z" transform="translate(-377.786 -239.013)" fill="#f6bc1f"/>
    <path id="Path_678" data-name="Path 678" d="M689.976,671.165l-1.446-19.489,11.018-2.379.8,20.659a6.542,6.542,0,1,1-10.368,1.209Z" transform="translate(-507.385 -464.382)" fill="#ffb6b6"/>
    <path id="Path_679" data-name="Path 679" d="M661.99,293.078s30.13,12.037,30.384,19.416-.284,11.852,1.044,41.4l-5.348,79.016s-20.93,3.067-18.5-1.519,1.833-6.858,1.833-6.858-4.311-2.036-2.84-7.511-2.283-33.332-2.283-33.332L666,334.155Z" transform="translate(-490.317 -235.307)" fill="#f6bc1f"/>
  </g>
</svg>
