<svg xmlns="http://www.w3.org/2000/svg" width="14.4" height="15.889" viewBox="0 0 14.4 15.889">
  <path id="bell" d="M15.264,9.045,14.006,4.519a6.17,6.17,0,0,0-11.968.314L1.065,9.212A3.31,3.31,0,0,0,4.3,13.24h.737a3.31,3.31,0,0,0,6.487,0h.555a3.31,3.31,0,0,0,3.189-4.2Zm-6.987,5.52A1.986,1.986,0,0,1,6.413,13.24h3.728a1.986,1.986,0,0,1-1.864,1.324Zm5.379-3.432a1.971,1.971,0,0,1-1.581.784H4.3A1.986,1.986,0,0,1,2.358,9.5l.973-4.38a4.846,4.846,0,0,1,9.4-.246L13.989,9.4a1.971,1.971,0,0,1-.332,1.733Z" transform="translate(-0.986 -0.002)"/>
</svg>
