<svg xmlns="http://www.w3.org/2000/svg" width="38.337" height="31.912" viewBox="0 0 38.337 31.912">
  <g id="Icon_feather-camera" data-name="Icon feather-camera" transform="translate(2.136 1.5)">
    <path id="Path_17" data-name="Path 17" d="M36.837,30.2a3.212,3.212,0,0,1-3.212,3.212H4.712A3.212,3.212,0,0,1,1.5,30.2V12.531A3.212,3.212,0,0,1,4.712,9.319h6.425L14.35,4.5h9.637L27.2,9.319h6.425a3.212,3.212,0,0,1,3.212,3.212Z" transform="translate(-2.136 -4.5)" fill="none" stroke="#000" stroke-width="3"/>
    <path id="Path_18" data-name="Path 18" d="M24.85,19.925A6.425,6.425,0,1,1,18.425,13.5,6.425,6.425,0,0,1,24.85,19.925Z" transform="translate(-0.756 -3.863)" fill="none" stroke="#000" stroke-width="3"/>
  </g>
</svg>
