<svg xmlns="http://www.w3.org/2000/svg" width="9.339" height="16.011" viewBox="0 0 9.339 16.011">
  <path id="dollar" d="M10.959,2.668a2.049,2.049,0,0,1,2.047,2.047.667.667,0,1,0,1.334,0V4.633a3.384,3.384,0,0,0-3.381-3.3h-.622V.667A.667.667,0,1,0,9,.667v.667H8.381A3.381,3.381,0,0,0,7.314,7.922L9,8.486v4.857H8.381A2.049,2.049,0,0,1,6.334,11.3.667.667,0,1,0,5,11.3v.082a3.384,3.384,0,0,0,3.381,3.3H9v.667a.667.667,0,1,0,1.334,0v-.667h.622a3.381,3.381,0,0,0,1.067-6.588l-1.689-.564V2.668Zm.647,6.685a2.047,2.047,0,0,1-.647,3.989h-.622V8.931ZM9,7.08,7.735,6.657a2.047,2.047,0,0,1,.646-3.989H9Z" transform="translate(-5)"/>
</svg>
