<svg xmlns="http://www.w3.org/2000/svg" width="20" height="24" viewBox="0 0 20 24">
  <g id="lock" transform="translate(-2)">
    <path id="Path_349" data-name="Path 349" d="M19,8.424V7A7,7,0,1,0,5,7V8.424A5,5,0,0,0,2,13v6a5.006,5.006,0,0,0,5,5H17a5.006,5.006,0,0,0,5-5V13A5,5,0,0,0,19,8.424ZM7,7A5,5,0,0,1,17,7V8H7ZM20,19a3,3,0,0,1-3,3H7a3,3,0,0,1-3-3V13a3,3,0,0,1,3-3H17a3,3,0,0,1,3,3Z" fill="rgba(0,0,0,0.71)"/>
    <path id="Path_350" data-name="Path 350" d="M12,14a1,1,0,0,0-1,1v2a1,1,0,0,0,2,0V15A1,1,0,0,0,12,14Z" fill="rgba(0,0,0,0.71)"/>
  </g>
</svg>
