<svg id="Component_5_10" data-name="Component 5 – 10" xmlns="http://www.w3.org/2000/svg" width="40" height="40" viewBox="0 0 40 40">
  <circle id="Ellipse_11" data-name="Ellipse 11" cx="20" cy="20" r="20" fill="rgba(209,209,209,0.22)"/>
  <path id="arrow-right_1_" data-name="arrow-right (1)" d="M19.734,9.294l-3.3-3.337a.854.854,0,0,0-1.212,0h0a.854.854,0,0,0,0,1.2l3.039,3.064H.854A.854.854,0,0,0,0,11.078H0a.854.854,0,0,0,.854.854H18.308l-3.09,3.081a.854.854,0,0,0,0,1.212h0a.854.854,0,0,0,1.212,0l3.3-3.312A2.561,2.561,0,0,0,19.734,9.294Z" transform="translate(10 9.296)"/>
</svg>
